<svg id="LastMileDelivery_BestSupport_QualityOfSupport" xmlns="http://www.w3.org/2000/svg" width="113.687" height="127.638" viewBox="0 0 113.687 127.638">
  <path id="Path_71063" data-name="Path 71063" d="M8.1,107.487l48.338,24.6,46.5-24.6V11.3H8.1Z" transform="translate(1.323 -8.118)" fill="#fff"/>
  <path id="Path_71064" data-name="Path 71064" d="M104.1,11.6,7.3,109.133l50.174,24.842L104.1,110.112Z" transform="translate(1.144 -8.051)" fill="#f2f3f2"/>
  <path id="Path_71065" data-name="Path 71065" d="M5.5,43.944v66.205l1.713.857,48.338,24.6,1.469.734,1.469-.734,46.625-24.6,1.713-.857V8.7H5.5Zm3.182,64.37V11.882h94.963v96.432l-46.625,24.6Z" transform="translate(0.741 -8.7)" fill="#dcdedc"/>
  <path id="Path_71066" data-name="Path 71066" d="M49.048,13.473a5.958,5.958,0,0,1,1.469.122L49.048,16.41a4.046,4.046,0,0,0-.49,8.077h.49a4.277,4.277,0,0,0,2.692-.979L53.331,26.2a7.418,7.418,0,0,1-4.283,1.346,7.043,7.043,0,0,1-.612-14.073h.612Zm5.017,6L55.9,22.528l-1.836,2.937-1.713-2.937H48.8l1.836-3.059Zm-2.937-1.1a2.467,2.467,0,0,1,.367-1.346,4.222,4.222,0,0,1,1.1-.979l.245-.122c.49-.245.612-.367.612-.612s-.367-.49-.612-.49a1.176,1.176,0,0,0-1.1.734l-.612-.612a3.244,3.244,0,0,1,.612-.734,1.819,1.819,0,0,1,1.1-.245,1.708,1.708,0,0,1,1.1.367,1.511,1.511,0,0,1,.49.979,1.4,1.4,0,0,1-1.1,1.346l-.367.245c-.367.245-.612.367-.734.734h2.2v.857l-3.3-.122Zm-2.08,15.3,11.626-6.608V8.7H37.3V26.934l11.748,6.731Z" transform="translate(7.857 -8.7)" fill="#ff492c"/>
  <path id="Path_71067" data-name="Path 71067" d="M110.293,64.5H4.316L.4,73.066l3.916,8.566H110.293l3.794-8.566Z" transform="translate(-0.4 3.786)" fill="#23cca2"/>
  <path id="Path_71068" data-name="Path 71068" d="M25.108,65.853a6.477,6.477,0,0,1-2.558-.465,3.787,3.787,0,0,1-1.7-1.346,3.467,3.467,0,0,1-.6-2.019v-.4a.215.215,0,0,1,.061-.159.244.244,0,0,1,.159-.061h2.093a.244.244,0,0,1,.159.061.215.215,0,0,1,.061.159v.269a1.489,1.489,0,0,0,.685,1.236,2.956,2.956,0,0,0,1.836.514,2.149,2.149,0,0,0,1.444-.416,1.3,1.3,0,0,0,.477-1.016,1.011,1.011,0,0,0-.294-.746,2.61,2.61,0,0,0-.8-.538q-.514-.22-1.6-.624a16.3,16.3,0,0,1-2.093-.869,4.316,4.316,0,0,1-1.432-1.2,3.03,3.03,0,0,1-.575-1.885,3.26,3.26,0,0,1,.575-1.921,3.572,3.572,0,0,1,1.566-1.273,6.41,6.41,0,0,1,4.822.061,4.071,4.071,0,0,1,1.713,1.383,3.535,3.535,0,0,1,.612,2.068v.269a.215.215,0,0,1-.061.159.244.244,0,0,1-.159.061H27.4a.215.215,0,0,1-.159-.061.2.2,0,0,1-.073-.159v-.147a1.668,1.668,0,0,0-.624-1.309,2.605,2.605,0,0,0-1.738-.538,2.166,2.166,0,0,0-1.346.367,1.167,1.167,0,0,0-.49,1,1.1,1.1,0,0,0,.281.771,2.536,2.536,0,0,0,.844.563q.563.245,1.738.673a20.412,20.412,0,0,1,2.044.844,4.113,4.113,0,0,1,1.346,1.089,2.853,2.853,0,0,1,.6,1.885,3.256,3.256,0,0,1-1.273,2.717,5.375,5.375,0,0,1-3.439,1Zm11.858-9.362a.222.222,0,0,1,.073-.159.2.2,0,0,1,.147-.061h2.154a.21.21,0,0,1,.22.22v8.995a.215.215,0,0,1-.061.159.244.244,0,0,1-.159.061H37.187a.2.2,0,0,1-.147-.061.2.2,0,0,1-.073-.159v-.624a.057.057,0,0,0-.037-.061q-.037-.012-.073.049a2.66,2.66,0,0,1-2.276.979A3.224,3.224,0,0,1,32.292,65a3.086,3.086,0,0,1-.906-2.374V56.491a.222.222,0,0,1,.073-.159.2.2,0,0,1,.147-.061h2.129a.215.215,0,0,1,.159.061.244.244,0,0,1,.061.159v5.495a1.717,1.717,0,0,0,.4,1.187,1.347,1.347,0,0,0,1.089.465,1.442,1.442,0,0,0,1.028-.379,1.611,1.611,0,0,0,.49-.979ZM49.889,58.8a6.59,6.59,0,0,1,.33,2.2,7.249,7.249,0,0,1-.343,2.3,3.973,3.973,0,0,1-1.334,1.86,3.624,3.624,0,0,1-2.252.685,2.484,2.484,0,0,1-2.056-.918q-.037-.049-.073-.037t-.037.073V68.9a.21.21,0,0,1-.22.22H41.764a.21.21,0,0,1-.22-.22V56.491a.244.244,0,0,1,.061-.159.215.215,0,0,1,.159-.061h2.142a.215.215,0,0,1,.159.061.244.244,0,0,1,.061.159v.6q0,.061.037.073a.07.07,0,0,0,.073-.024,2.525,2.525,0,0,1,2.129-1.016,3.526,3.526,0,0,1,2.2.71,3.923,3.923,0,0,1,1.322,1.97Zm-2.8,4.112a3.6,3.6,0,0,0,.453-1.946,3.794,3.794,0,0,0-.379-1.836,1.439,1.439,0,0,0-1.358-.783,1.372,1.372,0,0,0-1.273.783,4.732,4.732,0,0,0,.024,3.769,1.348,1.348,0,0,0,1.248.734,1.452,1.452,0,0,0,1.285-.722ZM60.316,58.8a6.59,6.59,0,0,1,.33,2.2,7.249,7.249,0,0,1-.343,2.3,3.973,3.973,0,0,1-1.334,1.86,3.624,3.624,0,0,1-2.252.685,2.484,2.484,0,0,1-2.056-.918q-.037-.049-.073-.037t-.037.073V68.9a.21.21,0,0,1-.22.22H52.19a.21.21,0,0,1-.22-.22V56.491a.244.244,0,0,1,.061-.159.215.215,0,0,1,.159-.061h2.142a.215.215,0,0,1,.159.061.244.244,0,0,1,.061.159v.6q0,.061.037.073a.07.07,0,0,0,.073-.024,2.525,2.525,0,0,1,2.129-1.016,3.526,3.526,0,0,1,2.2.71,3.923,3.923,0,0,1,1.322,1.97Zm-2.8,4.112a3.6,3.6,0,0,0,.453-1.946,3.794,3.794,0,0,0-.379-1.836,1.439,1.439,0,0,0-1.358-.783,1.372,1.372,0,0,0-1.273.783A4.732,4.732,0,0,0,54.98,62.9a1.348,1.348,0,0,0,1.248.734,1.452,1.452,0,0,0,1.285-.722Zm8.921,2.937a4.347,4.347,0,0,1-2.643-.808,4.035,4.035,0,0,1-1.505-2.2,6.493,6.493,0,0,1-.257-1.872,6.852,6.852,0,0,1,.257-1.946A3.914,3.914,0,0,1,63.8,56.895a4.513,4.513,0,0,1,2.656-.771,4.291,4.291,0,0,1,2.558.759,4.085,4.085,0,0,1,1.517,2.129,6.516,6.516,0,0,1,.281,1.921,6.833,6.833,0,0,1-.245,1.86,4.126,4.126,0,0,1-1.505,2.239A4.249,4.249,0,0,1,66.435,65.853Zm0-2.215a1.527,1.527,0,0,0,1.028-.367,2.064,2.064,0,0,0,.6-1.016,5.293,5.293,0,0,0,.147-1.285,4.9,4.9,0,0,0-.147-1.3,2.017,2.017,0,0,0-.624-.979,1.713,1.713,0,0,0-2.056,0,1.983,1.983,0,0,0-.6.979,4.271,4.271,0,0,0-.147,1.3,5.194,5.194,0,0,0,.122,1.285,1.982,1.982,0,0,0,.624,1.016A1.561,1.561,0,0,0,66.435,63.638Zm10.757-7.489a1.9,1.9,0,0,1,1.052.257.222.222,0,0,1,.11.269l-.392,2.093q-.012.22-.257.135a1.863,1.863,0,0,0-.636-.1,2.823,2.823,0,0,0-.4.037,1.868,1.868,0,0,0-1.126.49,1.508,1.508,0,0,0-.453,1.15v5.005a.2.2,0,0,1-.073.159.2.2,0,0,1-.147.061H72.712a.244.244,0,0,1-.159-.061.215.215,0,0,1-.061-.159V56.491a.21.21,0,0,1,.22-.22h2.154a.2.2,0,0,1,.147.061.222.222,0,0,1,.073.159v.7a.082.082,0,0,0,.037.073q.037.024.049-.024A2.348,2.348,0,0,1,77.191,56.148Zm7.857,1.982a.2.2,0,0,1-.061.147.2.2,0,0,1-.159.073H83.065a.076.076,0,0,0-.086.086v3.892a1.427,1.427,0,0,0,.245.906.98.98,0,0,0,.8.294h.612a.2.2,0,0,1,.147.061.2.2,0,0,1,.073.159v1.738a.215.215,0,0,1-.22.233q-.771.037-1.1.037a4.128,4.128,0,0,1-2.276-.5,2.136,2.136,0,0,1-.771-1.9V58.437q0-.086-.1-.086h-1.04a.2.2,0,0,1-.159-.073.2.2,0,0,1-.061-.147v-1.64a.244.244,0,0,1,.061-.159.215.215,0,0,1,.159-.061h1.04a.087.087,0,0,0,.1-.1V53.994a.244.244,0,0,1,.061-.159.215.215,0,0,1,.159-.061h2.056a.2.2,0,0,1,.147.061.222.222,0,0,1,.073.159v2.178q0,.1.086.1h1.762a.215.215,0,0,1,.159.061.244.244,0,0,1,.061.159ZM42.18,40.655q-.11.049,0,.11a3.1,3.1,0,0,1,1.738,2.986,3.148,3.148,0,0,1-1.212,2.692,5.16,5.16,0,0,1-3.17.906h-4.76a.2.2,0,0,1-.147-.061.2.2,0,0,1-.073-.159V34.72a.222.222,0,0,1,.073-.159.2.2,0,0,1,.147-.061H39.39q4.344,0,4.344,3.524a2.733,2.733,0,0,1-1.554,2.631Zm-4.944-3.94q-.086,0-.086.1v2.864q0,.1.086.1H39.39a2.054,2.054,0,0,0,1.346-.4,1.383,1.383,0,0,0,.465-1.1,1.45,1.45,0,0,0-.465-1.138,2.013,2.013,0,0,0-1.346-.416Zm2.3,8.395a1.908,1.908,0,0,0,1.322-.428,1.513,1.513,0,0,0,.477-1.187,1.537,1.537,0,0,0-.477-1.187,1.946,1.946,0,0,0-1.346-.428H37.236q-.086,0-.086.1v3.035q0,.1.086.1h2.3Zm14.587-3.451a7.85,7.85,0,0,1,.073,1.554.212.212,0,0,1-.233.233H48.286q-.11,0-.073.086a3.543,3.543,0,0,0,.208.734,1.925,1.925,0,0,0,1.946,1.028,2.179,2.179,0,0,0,1.848-.955.208.208,0,0,1,.171-.11.2.2,0,0,1,.122.073l1.322,1.3a.269.269,0,0,1,.1.171.378.378,0,0,1-.073.147,3.949,3.949,0,0,1-1.566,1.163A5.125,5.125,0,0,1,50.2,47.5a4.783,4.783,0,0,1-2.668-.71,4.014,4.014,0,0,1-1.566-2.007,6.186,6.186,0,0,1-.392-2.4,5.2,5.2,0,0,1,.281-1.787,3.984,3.984,0,0,1,1.481-2.068,4.53,4.53,0,0,1,5.446.294A4.617,4.617,0,0,1,54.124,41.659Zm-4.271-1.664a1.475,1.475,0,0,0-1.53,1.077,4.079,4.079,0,0,0-.122.587.076.076,0,0,0,.086.086h3.182q.11,0,.073-.086-.1-.526-.1-.514a1.564,1.564,0,0,0-.575-.857,1.716,1.716,0,0,0-1.016-.294Zm9.582,7.477a6.15,6.15,0,0,1-2.154-.343,3.209,3.209,0,0,1-1.42-.967,2.2,2.2,0,0,1-.5-1.42v-.184a.244.244,0,0,1,.061-.159.215.215,0,0,1,.159-.061h2.031a.215.215,0,0,1,.159.061.244.244,0,0,1,.061.159v.012a.816.816,0,0,0,.453.7,2.1,2.1,0,0,0,1.126.281,1.891,1.891,0,0,0,1.016-.245.736.736,0,0,0,.379-.612.541.541,0,0,0-.33-.5,6.025,6.025,0,0,0-1.077-.343,9.755,9.755,0,0,1-1.358-.428,5.833,5.833,0,0,1-1.872-.991,2.084,2.084,0,0,1-.7-1.689,2.558,2.558,0,0,1,1.052-2.154,4.534,4.534,0,0,1,2.8-.8,5.316,5.316,0,0,1,2.056.367,3.182,3.182,0,0,1,1.371,1.065,2.6,2.6,0,0,1,.477,1.542.2.2,0,0,1-.061.147.215.215,0,0,1-.159.061H61.05a.215.215,0,0,1-.159-.061.2.2,0,0,1-.061-.147.816.816,0,0,0-.416-.685,1.909,1.909,0,0,0-1.089-.281,1.877,1.877,0,0,0-.991.233.668.668,0,0,0-.392.6.588.588,0,0,0,.379.551,6.722,6.722,0,0,0,1.26.392l.453.11q.257.061.551.159a6.036,6.036,0,0,1,2.056.991A2.132,2.132,0,0,1,63.4,44.6a2.444,2.444,0,0,1-1.077,2.117,4.924,4.924,0,0,1-2.888.759Zm10.842-7.7a.2.2,0,0,1-.061.147.2.2,0,0,1-.159.073H68.295a.076.076,0,0,0-.086.086v3.892a1.427,1.427,0,0,0,.245.906,1,1,0,0,0,.808.294h.6a.244.244,0,0,1,.159.061.215.215,0,0,1,.061.159v1.738a.215.215,0,0,1-.22.233q-.771.037-1.1.037a4.128,4.128,0,0,1-2.276-.5,2.136,2.136,0,0,1-.771-1.9V40.08q0-.086-.1-.086h-1.04a.2.2,0,0,1-.159-.073.2.2,0,0,1-.061-.147v-1.64a.244.244,0,0,1,.061-.159.215.215,0,0,1,.159-.061h1.04a.087.087,0,0,0,.1-.1V35.638a.244.244,0,0,1,.061-.159.215.215,0,0,1,.159-.061h2.056a.21.21,0,0,1,.22.22v2.178q0,.1.086.1h1.762a.215.215,0,0,1,.159.061.244.244,0,0,1,.061.159Z" transform="translate(4.042 -2.927)" fill="#252530"/>
  <path id="Path_71069" data-name="Path 71069" d="M33.715,77.082a4.179,4.179,0,0,1-1.664-.306,2.551,2.551,0,0,1-1.1-.857,2.23,2.23,0,0,1-.379-1.3v-.306a.152.152,0,0,1,.049-.11.132.132,0,0,1,.1-.037h1.089a.13.13,0,0,1,.147.147v.233a1.111,1.111,0,0,0,.5.93,2.223,2.223,0,0,0,1.371.379,1.716,1.716,0,0,0,1.126-.318,1.021,1.021,0,0,0,.379-.82.877.877,0,0,0-.208-.587,2.026,2.026,0,0,0-.587-.428q-.392-.2-1.163-.49a12.1,12.1,0,0,1-1.407-.6,2.544,2.544,0,0,1-.893-.771,1.909,1.909,0,0,1-.367-1.2,2.058,2.058,0,0,1,.783-1.7,3.262,3.262,0,0,1,2.093-.624,3.942,3.942,0,0,1,1.628.318,2.574,2.574,0,0,1,1.089.893,2.236,2.236,0,0,1,.392,1.309v.208a.152.152,0,0,1-.049.11.132.132,0,0,1-.1.037h-1.1a.132.132,0,0,1-.1-.037.152.152,0,0,1-.049-.11v-.135a1.216,1.216,0,0,0-.465-.967,1.964,1.964,0,0,0-1.309-.4,1.679,1.679,0,0,0-1.04.281.932.932,0,0,0-.379.8.9.9,0,0,0,.2.6,1.7,1.7,0,0,0,.587.416,11.923,11.923,0,0,0,1.212.49,14.4,14.4,0,0,1,1.4.6,2.785,2.785,0,0,1,.893.746,1.962,1.962,0,0,1,.367,1.212,2.114,2.114,0,0,1-.82,1.75A3.443,3.443,0,0,1,33.715,77.082Zm7.905-8.676a2.808,2.808,0,0,1,1.358.318,2.221,2.221,0,0,1,.906.893,2.7,2.7,0,0,1,.33,1.346,2.606,2.606,0,0,1-.33,1.322,2.2,2.2,0,0,1-.93.881,3.007,3.007,0,0,1-1.407.318H39.589a.054.054,0,0,0-.061.061v3.292a.132.132,0,0,1-.037.1.152.152,0,0,1-.11.049H38.255a.173.173,0,0,1-.147-.147V68.553a.152.152,0,0,1,.049-.11.132.132,0,0,1,.1-.037h3.365Zm-.208,3.928a1.382,1.382,0,0,0,1-.367A1.284,1.284,0,0,0,42.8,71a1.341,1.341,0,0,0-.379-.991,1.357,1.357,0,0,0-1-.379H39.589a.054.054,0,0,0-.061.061v2.582a.054.054,0,0,0,.061.061h1.823Zm8.86,4.65a.173.173,0,0,1-.171-.11L48.486,73.35a.078.078,0,0,0-.073-.049H46.944a.054.054,0,0,0-.061.061v3.475a.173.173,0,0,1-.147.147H45.61a.173.173,0,0,1-.147-.147V68.565a.173.173,0,0,1,.147-.147h3.365a2.772,2.772,0,0,1,1.322.306,2.263,2.263,0,0,1,.893.881,2.66,2.66,0,0,1,.318,1.309,2.364,2.364,0,0,1-.428,1.432,2.266,2.266,0,0,1-1.212.832.039.039,0,0,0-.037.024.052.052,0,0,0,0,.049l1.725,3.561a.188.188,0,0,1,.024.073q0,.1-.135.1Zm-3.329-7.343a.054.054,0,0,0-.061.061v2.435a.054.054,0,0,0,.061.061h1.836a1.274,1.274,0,0,0,.942-.355,1.2,1.2,0,0,0,.367-.918,1.235,1.235,0,0,0-.367-.93,1.274,1.274,0,0,0-.942-.355Zm6.168,7.343a.152.152,0,0,1-.11-.049.132.132,0,0,1-.037-.1V68.565a.132.132,0,0,1,.037-.1.152.152,0,0,1,.11-.049h1.126a.173.173,0,0,1,.147.147v8.273a.173.173,0,0,1-.147.147Zm8.04-8.419a.173.173,0,0,1,.147-.147h1.126a.152.152,0,0,1,.11.049.132.132,0,0,1,.037.1v8.273a.132.132,0,0,1-.037.1.152.152,0,0,1-.11.049H61.335a.175.175,0,0,1-.171-.1L57.639,71.11q-.024-.037-.049-.037t-.024.061l.024,5.7a.173.173,0,0,1-.147.147H56.318a.173.173,0,0,1-.147-.147V68.565a.173.173,0,0,1,.147-.147h1.089a.175.175,0,0,1,.171.1l3.512,5.776q.024.037.049.024t.024-.049Zm6.07,8.517a3.515,3.515,0,0,1-1.615-.355A2.618,2.618,0,0,1,64.529,75.7a2.993,2.993,0,0,1-.379-1.517V71.22a3.018,3.018,0,0,1,.379-1.53,2.642,2.642,0,0,1,1.077-1.016,3.826,3.826,0,0,1,3.218,0,2.66,2.66,0,0,1,1.065.967,2.57,2.57,0,0,1,.379,1.383v.1a.132.132,0,0,1-.037.1.152.152,0,0,1-.11.049H69.008a.173.173,0,0,1-.147-.147v-.061a1.434,1.434,0,0,0-.453-1.089A1.836,1.836,0,0,0,66.022,70a1.564,1.564,0,0,0-.453,1.175v3.059a1.561,1.561,0,0,0,.477,1.187,1.75,1.75,0,0,0,1.236.441,1.657,1.657,0,0,0,1.163-.392,1.352,1.352,0,0,0,.416-1.052v-.759a.054.054,0,0,0-.061-.061H67.295a.152.152,0,0,1-.11-.049.132.132,0,0,1-.037-.1v-.906a.132.132,0,0,1,.037-.1.152.152,0,0,1,.11-.049h2.827a.152.152,0,0,1,.11.049.132.132,0,0,1,.037.1v1.566a2.885,2.885,0,0,1-.82,2.191,3.118,3.118,0,0,1-2.227.783Z" transform="translate(6.351 4.64)" fill="#242530"/>
  <path id="Path_71070" data-name="Path 71070" d="M34.114,95.346a.07.07,0,0,0-.024.073.082.082,0,0,0,.073.037h4.809a.2.2,0,0,1,.147.061.185.185,0,0,1,.073.147V97.39a.185.185,0,0,1-.073.147.2.2,0,0,1-.147.061H30.994a.215.215,0,0,1-.159-.061.2.2,0,0,1-.061-.147V95.75a.366.366,0,0,1,.11-.269q.869-.844,1.774-1.848T33.8,92.385q.49-.587,1-1.126,1.615-1.787,1.615-2.656a1.333,1.333,0,0,0-.441-1.028,1.885,1.885,0,0,0-2.3,0,1.358,1.358,0,0,0-.453,1.065v.441a.209.209,0,0,1-.208.208H30.92a.2.2,0,0,1-.147-.061.185.185,0,0,1-.073-.147v-.832a3.143,3.143,0,0,1,.612-1.7,3.53,3.53,0,0,1,1.456-1.126,5.189,5.189,0,0,1,2.056-.392,4.739,4.739,0,0,1,2.191.477,3.49,3.49,0,0,1,1.432,1.26,3.239,3.239,0,0,1,.514,1.774,3.5,3.5,0,0,1-.379,1.53,8.189,8.189,0,0,1-1.114,1.689q-.551.685-1.187,1.371t-1.9,1.946l-.269.269Zm10.842,2.448A4.248,4.248,0,0,1,41.873,96.7a3.921,3.921,0,0,1-1.138-2.974V89.044a3.834,3.834,0,0,1,1.138-2.925,4.248,4.248,0,0,1,3.084-1.089,4.319,4.319,0,0,1,3.1,1.089,3.834,3.834,0,0,1,1.138,2.925v4.687A3.921,3.921,0,0,1,48.053,96.7,4.319,4.319,0,0,1,44.957,97.794Zm0-2.142a1.656,1.656,0,0,0,1.26-.49,1.8,1.8,0,0,0,.477-1.309V88.97a1.779,1.779,0,0,0-.477-1.3,1.852,1.852,0,0,0-2.509,0,1.779,1.779,0,0,0-.477,1.3v4.883a1.8,1.8,0,0,0,.477,1.309A1.64,1.64,0,0,0,44.957,95.652Zm9.2-.306a.053.053,0,0,0-.012.073q.012.037.073.037H59.03a.209.209,0,0,1,.208.208V97.39a.209.209,0,0,1-.208.208H51.039a.209.209,0,0,1-.208-.208V95.75a.391.391,0,0,1,.1-.269q.881-.844,1.774-1.848t1.138-1.248q.5-.587,1.016-1.126,1.615-1.787,1.615-2.656a1.333,1.333,0,0,0-.441-1.028,1.714,1.714,0,0,0-1.163-.392,1.667,1.667,0,0,0-1.15.392,1.376,1.376,0,0,0-.441,1.065v.441a.2.2,0,0,1-.061.147.215.215,0,0,1-.159.061H50.965a.209.209,0,0,1-.208-.208v-.832a3.067,3.067,0,0,1,.6-1.7,3.517,3.517,0,0,1,1.469-1.126,5.157,5.157,0,0,1,2.044-.392,4.739,4.739,0,0,1,2.191.477,3.475,3.475,0,0,1,1.444,1.26,3.3,3.3,0,0,1,.5,1.774,3.59,3.59,0,0,1-.367,1.53,8.651,8.651,0,0,1-1.126,1.689q-.551.685-1.187,1.371t-1.9,1.946l-.269.269Zm15.493-3.157a.244.244,0,0,1,.159.061.2.2,0,0,1,.061.147v1.8a.2.2,0,0,1-.061.147.244.244,0,0,1-.159.061h-.759a.076.076,0,0,0-.086.086v2.9a.2.2,0,0,1-.061.147.244.244,0,0,1-.159.061H66.519a.215.215,0,0,1-.159-.061.2.2,0,0,1-.061-.147v-2.9a.076.076,0,0,0-.086-.086H60.768a.244.244,0,0,1-.159-.061.2.2,0,0,1-.061-.147v-1.42a.777.777,0,0,1,.061-.269L63.8,85.336a.251.251,0,0,1,.245-.159h2.215a.208.208,0,0,1,.171.061q.049.061-.012.184L63.46,92.079a.113.113,0,0,0,0,.073.072.072,0,0,0,.061.037h2.692q.086,0,.086-.1V89.9a.21.21,0,0,1,.22-.22h2.068a.244.244,0,0,1,.159.061.215.215,0,0,1,.061.159v2.191q0,.1.086.1h.759Z" transform="translate(6.38 8.379)" fill="#252530"/>
</svg>
