<svg id="LastMileDelivery_EasiestToDoBusinessWith_EaseOfDoingBusinessWith" xmlns="http://www.w3.org/2000/svg" width="113.687" height="127.638" viewBox="0 0 113.687 127.638">
  <path id="Path_71071" data-name="Path 71071" d="M8.1,107.487l48.338,24.6,46.5-24.6V11.3H8.1Z" transform="translate(1.323 -8.118)" fill="#fff"/>
  <path id="Path_71072" data-name="Path 71072" d="M104.1,11.6,7.3,109.133l50.174,24.842L104.1,110.112Z" transform="translate(1.144 -8.051)" fill="#f2f3f2"/>
  <path id="Path_71073" data-name="Path 71073" d="M5.5,43.944v66.205l1.713.857,48.338,24.6,1.469.734,1.469-.734,46.625-24.6,1.713-.857V8.7H5.5Zm3.182,64.37V11.882h94.963v96.432l-46.625,24.6Z" transform="translate(0.741 -8.7)" fill="#dcdedc"/>
  <path id="Path_71074" data-name="Path 71074" d="M49.048,13.473a5.958,5.958,0,0,1,1.469.122L49.048,16.41a4.046,4.046,0,0,0-.49,8.077h.49a4.277,4.277,0,0,0,2.692-.979L53.331,26.2a7.418,7.418,0,0,1-4.283,1.346,7.043,7.043,0,0,1-.612-14.073h.612Zm5.017,6L55.9,22.528l-1.836,2.937-1.713-2.937H48.8l1.836-3.059Zm-2.937-1.1a2.467,2.467,0,0,1,.367-1.346,4.222,4.222,0,0,1,1.1-.979l.245-.122c.49-.245.612-.367.612-.612s-.367-.49-.612-.49a1.176,1.176,0,0,0-1.1.734l-.612-.612a3.244,3.244,0,0,1,.612-.734,1.819,1.819,0,0,1,1.1-.245,1.708,1.708,0,0,1,1.1.367,1.511,1.511,0,0,1,.49.979,1.4,1.4,0,0,1-1.1,1.346l-.367.245c-.367.245-.612.367-.734.734h2.2v.857l-3.3-.122Zm-2.08,15.3,11.626-6.608V8.7H37.3V26.934l11.748,6.731Z" transform="translate(7.857 -8.7)" fill="#ff492c"/>
  <path id="Path_71075" data-name="Path 71075" d="M110.293,64.5H4.316L.4,73.066l3.916,8.566H110.293l3.794-8.566Z" transform="translate(-0.4 3.786)" fill="#23cca2"/>
  <path id="Path_71076" data-name="Path 71076" d="M18.463,59.351q-.086.037,0,.073a2.279,2.279,0,0,1,1.273,2.191,2.327,2.327,0,0,1-.893,1.982,3.779,3.779,0,0,1-2.325.661H13.029a.168.168,0,0,1-.159-.159v-9.1a.168.168,0,0,1,.159-.159h3.378q3.194,0,3.194,2.582A2.013,2.013,0,0,1,18.463,59.351ZM14.84,56.463a.065.065,0,0,0-.073.073v2.093a.065.065,0,0,0,.073.073h1.566A1.471,1.471,0,0,0,17.4,58.4a.994.994,0,0,0,.343-.8,1.059,1.059,0,0,0-.343-.832,1.471,1.471,0,0,0-.991-.306Zm1.677,6.155a1.368,1.368,0,0,0,.967-.318,1.241,1.241,0,0,0,0-1.738,1.386,1.386,0,0,0-.979-.318H14.84a.065.065,0,0,0-.073.073v2.227a.065.065,0,0,0,.073.073h1.677ZM25.059,57.5a.135.135,0,0,1,.159-.159h1.566a.2.2,0,0,1,.122.037.166.166,0,0,1,.049.122v6.6a.152.152,0,0,1-.049.11.166.166,0,0,1-.122.049H25.218a.166.166,0,0,1-.122-.049.179.179,0,0,1-.037-.11v-.465a.032.032,0,0,0-.037-.037q-.024-.012-.049.024a1.927,1.927,0,0,1-1.664.734,2.361,2.361,0,0,1-1.689-.624,2.251,2.251,0,0,1-.661-1.738V57.5a.166.166,0,0,1,.049-.122.179.179,0,0,1,.11-.037h1.566a.179.179,0,0,1,.11.037.166.166,0,0,1,.049.122v4.026a1.259,1.259,0,0,0,.294.869.971.971,0,0,0,.8.343,1.051,1.051,0,0,0,.759-.281,1.207,1.207,0,0,0,.367-.722V57.5Zm6.058,6.853a4.417,4.417,0,0,1-1.579-.257,2.407,2.407,0,0,1-1.04-.71,1.6,1.6,0,0,1-.379-1.04v-.135a.166.166,0,0,1,.049-.122.2.2,0,0,1,.122-.037h1.493a.179.179,0,0,1,.11.037.166.166,0,0,1,.049.122v.012a.6.6,0,0,0,.33.5,1.511,1.511,0,0,0,.82.208,1.348,1.348,0,0,0,.746-.184.525.525,0,0,0,.281-.441.392.392,0,0,0-.245-.367,4.119,4.119,0,0,0-.8-.257,8.284,8.284,0,0,1-.991-.306,4.489,4.489,0,0,1-1.371-.734,1.518,1.518,0,0,1-.514-1.236,1.883,1.883,0,0,1,.771-1.579,3.307,3.307,0,0,1,2.056-.587,3.9,3.9,0,0,1,1.505.269,2.327,2.327,0,0,1,1,.783,1.868,1.868,0,0,1,.355,1.126.168.168,0,0,1-.159.159H32.291a.152.152,0,0,1-.11-.049.129.129,0,0,1-.049-.11.6.6,0,0,0-.306-.5,1.417,1.417,0,0,0-.8-.2,1.456,1.456,0,0,0-.722.159.487.487,0,0,0-.294.441.431.431,0,0,0,.281.4,5.308,5.308,0,0,0,.918.294l.343.086.4.11a4.387,4.387,0,0,1,1.505.722,1.584,1.584,0,0,1,.551,1.3,1.809,1.809,0,0,1-.783,1.554,3.594,3.594,0,0,1-2.117.563Zm5.017-7.8a1,1,0,0,1-.759-.306,1.03,1.03,0,0,1-.306-.759,1.008,1.008,0,0,1,1.065-1.065,1.069,1.069,0,0,1,.771.294,1.042,1.042,0,0,1,.294.771,1.045,1.045,0,0,1-1.065,1.065Zm-.808,7.7a.129.129,0,0,1-.11-.049.152.152,0,0,1-.049-.11V57.491a.166.166,0,0,1,.049-.122.129.129,0,0,1,.11-.049H36.9a.152.152,0,0,1,.11.049.166.166,0,0,1,.049.122V64.1a.168.168,0,0,1-.159.159H35.326Zm6.829-7.024a2.308,2.308,0,0,1,1.725.661,2.414,2.414,0,0,1,.661,1.787V64.1a.179.179,0,0,1-.037.11.166.166,0,0,1-.122.049H42.8a.168.168,0,0,1-.159-.159V60.073a1.306,1.306,0,0,0-.294-.881,1.049,1.049,0,0,0-.808-.33,1.011,1.011,0,0,0-.8.33,1.273,1.273,0,0,0-.306.881V64.1a.168.168,0,0,1-.159.159H38.7a.129.129,0,0,1-.11-.049.152.152,0,0,1-.049-.11V57.5a.166.166,0,0,1,.049-.122.15.15,0,0,1,.11-.037h1.579a.179.179,0,0,1,.11.037.166.166,0,0,1,.049.122v.465q0,.049.024.061a.024.024,0,0,0,.037-.012,1.886,1.886,0,0,1,1.652-.783Zm9.839,2.851a6.43,6.43,0,0,1,.049,1.15.153.153,0,0,1-.171.159H47.71q-.086,0-.061.061a2.693,2.693,0,0,0,.159.538,1.394,1.394,0,0,0,1.42.759,1.607,1.607,0,0,0,1.358-.7q.061-.086.122-.086a.18.18,0,0,1,.1.049l.967.967q.073.061.073.11a.214.214,0,0,1-.061.11,2.94,2.94,0,0,1-1.138.857,3.854,3.854,0,0,1-1.542.306,3.509,3.509,0,0,1-1.958-.526A2.958,2.958,0,0,1,46,62.373a4.63,4.63,0,0,1-.281-1.762,3.77,3.77,0,0,1,.208-1.309A2.933,2.933,0,0,1,47,57.784,3.335,3.335,0,0,1,51,58a3.432,3.432,0,0,1,.991,2.08Zm-3.145-1.224a1.077,1.077,0,0,0-1.114.8q-.049.171-.1.428a.065.065,0,0,0,.073.073h2.325q.086,0,.061-.073-.073-.392-.073-.379a1.153,1.153,0,0,0-.428-.624A1.21,1.21,0,0,0,48.848,58.861Zm7.037,5.495a4.417,4.417,0,0,1-1.579-.257,2.407,2.407,0,0,1-1.04-.71,1.6,1.6,0,0,1-.379-1.04v-.135a.166.166,0,0,1,.049-.122.2.2,0,0,1,.122-.037h1.493a.179.179,0,0,1,.11.037.166.166,0,0,1,.049.122v.012a.6.6,0,0,0,.33.5,1.511,1.511,0,0,0,.82.208,1.348,1.348,0,0,0,.746-.184.525.525,0,0,0,.281-.441.392.392,0,0,0-.245-.367,4.119,4.119,0,0,0-.8-.257,8.282,8.282,0,0,1-.991-.306,4.489,4.489,0,0,1-1.371-.734,1.518,1.518,0,0,1-.514-1.236,1.883,1.883,0,0,1,.771-1.579,3.308,3.308,0,0,1,2.056-.587,3.9,3.9,0,0,1,1.505.269,2.328,2.328,0,0,1,1,.783,1.868,1.868,0,0,1,.355,1.126.168.168,0,0,1-.159.159H57.06a.152.152,0,0,1-.11-.049.129.129,0,0,1-.049-.11.6.6,0,0,0-.306-.5,1.417,1.417,0,0,0-.8-.2,1.456,1.456,0,0,0-.722.159.487.487,0,0,0-.294.441.431.431,0,0,0,.281.4,5.307,5.307,0,0,0,.918.294l.343.086.4.11a4.387,4.387,0,0,1,1.505.722,1.584,1.584,0,0,1,.551,1.3A1.809,1.809,0,0,1,58,63.793a3.594,3.594,0,0,1-2.117.563Zm6.657,0a4.417,4.417,0,0,1-1.579-.257,2.407,2.407,0,0,1-1.04-.71,1.637,1.637,0,0,1-.367-1.04v-.135a.166.166,0,0,1,.049-.122.179.179,0,0,1,.11-.037h1.493a.135.135,0,0,1,.159.159v.012a.6.6,0,0,0,.33.5,1.535,1.535,0,0,0,.832.208,1.323,1.323,0,0,0,.734-.184.523.523,0,0,0,.294-.441.392.392,0,0,0-.245-.367,4.119,4.119,0,0,0-.8-.257,8.117,8.117,0,0,1-1-.306,4.489,4.489,0,0,1-1.371-.734,1.518,1.518,0,0,1-.514-1.236,1.872,1.872,0,0,1,.783-1.579,3.308,3.308,0,0,1,2.056-.587,3.9,3.9,0,0,1,1.505.269,2.428,2.428,0,0,1,1,.783,1.868,1.868,0,0,1,.355,1.126.129.129,0,0,1-.049.11.152.152,0,0,1-.11.049H63.729a.168.168,0,0,1-.159-.159.6.6,0,0,0-.306-.5,1.454,1.454,0,0,0-.8-.2,1.484,1.484,0,0,0-.734.159.488.488,0,0,0-.281.441.431.431,0,0,0,.281.4,4.858,4.858,0,0,0,.918.294l.33.086q.2.049.4.11a4.534,4.534,0,0,1,1.517.722,1.584,1.584,0,0,1,.551,1.3,1.8,1.8,0,0,1-.8,1.554,3.56,3.56,0,0,1-2.117.563Zm8.9-.1a.171.171,0,0,1-.184-.135l-2.386-9.117-.012-.049q0-.122.147-.122H70.68a.163.163,0,0,1,.171.135l1.273,5.482q.012.049.049.049t.037-.049l1.236-5.47a.167.167,0,0,1,.171-.147h1.628a.179.179,0,0,1,.2.135l1.346,5.482a.079.079,0,0,0,.037.049q.024,0,.037-.049l1.248-5.47a.167.167,0,0,1,.171-.147h1.591q.184,0,.147.171L77.8,64.123a.171.171,0,0,1-.184.135h-1.6a.163.163,0,0,1-.171-.135L74.474,58.3q-.012-.061-.049-.061t-.037.061l-1.273,5.813a.174.174,0,0,1-.184.147H71.439Zm10.622-7.7A1.045,1.045,0,0,1,81,55.5a1.042,1.042,0,0,1,.294-.771,1.069,1.069,0,0,1,.771-.294A1.008,1.008,0,0,1,83.126,55.5a1.045,1.045,0,0,1-1.065,1.065Zm-.808,7.7a.168.168,0,0,1-.159-.159V57.491a.166.166,0,0,1,.049-.122.152.152,0,0,1,.11-.049h1.579a.152.152,0,0,1,.11.049.166.166,0,0,1,.049.122V64.1a.168.168,0,0,1-.159.159ZM88.437,58.7a.179.179,0,0,1-.037.11.166.166,0,0,1-.122.049H86.993q-.073,0-.073.061v2.864a1.014,1.014,0,0,0,.184.661.746.746,0,0,0,.587.208h.441a.166.166,0,0,1,.122.049.179.179,0,0,1,.037.11V64.1a.162.162,0,0,1-.159.171q-.563.024-.808.024a3.032,3.032,0,0,1-1.664-.367,1.584,1.584,0,0,1-.563-1.4v-3.61q0-.061-.073-.061h-.771a.168.168,0,0,1-.159-.159V57.5a.166.166,0,0,1,.049-.122.179.179,0,0,1,.11-.037h.771a.065.065,0,0,0,.073-.073v-1.6a.179.179,0,0,1,.037-.11.166.166,0,0,1,.122-.049H86.76a.168.168,0,0,1,.159.159v1.6a.065.065,0,0,0,.073.073h1.285a.135.135,0,0,1,.159.159Zm4.76-1.469a2.35,2.35,0,0,1,1.738.661,2.414,2.414,0,0,1,.661,1.787V64.1a.152.152,0,0,1-.049.11.166.166,0,0,1-.122.049H93.858a.166.166,0,0,1-.122-.049.179.179,0,0,1-.037-.11V60.073a1.273,1.273,0,0,0-.306-.881,1.049,1.049,0,0,0-.808-.33,1.034,1.034,0,0,0-.8.33,1.273,1.273,0,0,0-.306.881V64.1a.168.168,0,0,1-.159.159H89.746a.168.168,0,0,1-.159-.159v-9.1a.168.168,0,0,1,.159-.159h1.579a.168.168,0,0,1,.159.159v2.974q0,.049.024.061a.04.04,0,0,0,.049-.012,1.874,1.874,0,0,1,1.64-.783ZM21.583,42.842a.152.152,0,0,1-.049.11.166.166,0,0,1-.122.049H17.006a.065.065,0,0,0-.073.073v2.08a.065.065,0,0,0,.073.073h2.888a.135.135,0,0,1,.159.159V46.7a.179.179,0,0,1-.037.11.166.166,0,0,1-.122.049H17.006q-.073,0-.073.061V49.1a.065.065,0,0,0,.073.073h4.406a.166.166,0,0,1,.122.049.152.152,0,0,1,.049.11v1.309a.152.152,0,0,1-.049.11.166.166,0,0,1-.122.049H15.2a.168.168,0,0,1-.159-.159v-9.1a.168.168,0,0,1,.159-.159h6.217a.166.166,0,0,1,.122.049.152.152,0,0,1,.049.11v1.309Zm3.953.93a3.806,3.806,0,0,1,1.566.306,2.478,2.478,0,0,1,1.065.82,1.962,1.962,0,0,1,.379,1.175v4.565a.179.179,0,0,1-.037.11.166.166,0,0,1-.122.049H26.821a.166.166,0,0,1-.122-.049.152.152,0,0,1-.049-.11V50.2q0-.049-.024-.061t-.049.024a2.136,2.136,0,0,1-1.823.746,2.607,2.607,0,0,1-1.689-.514,1.805,1.805,0,0,1-.649-1.505,1.948,1.948,0,0,1,.722-1.615,3.357,3.357,0,0,1,2.08-.563h1.371q.061,0,.061-.073v-.294a.919.919,0,0,0-.269-.7,1.166,1.166,0,0,0-.808-.245,1.422,1.422,0,0,0-.685.147.658.658,0,0,0-.355.416.167.167,0,0,1-.184.135l-1.628-.208q-.159-.037-.147-.122a1.733,1.733,0,0,1,.453-1.028,2.609,2.609,0,0,1,1.052-.71A3.924,3.924,0,0,1,25.536,43.772Zm-.269,5.715a1.574,1.574,0,0,0,.979-.306.953.953,0,0,0,.4-.8v-.477q0-.073-.061-.073h-.967a1.685,1.685,0,0,0-.955.233.722.722,0,0,0-.343.649.686.686,0,0,0,.257.563,1.057,1.057,0,0,0,.685.208Zm7.379,1.407a4.417,4.417,0,0,1-1.579-.257,2.407,2.407,0,0,1-1.04-.71,1.637,1.637,0,0,1-.367-1.04v-.135a.166.166,0,0,1,.049-.122.15.15,0,0,1,.11-.037h1.493a.179.179,0,0,1,.11.037.166.166,0,0,1,.049.122v.012a.6.6,0,0,0,.33.5,1.535,1.535,0,0,0,.832.208,1.323,1.323,0,0,0,.734-.184.525.525,0,0,0,.281-.441.393.393,0,0,0-.233-.367,4.119,4.119,0,0,0-.8-.257,8.119,8.119,0,0,1-1-.306,4.489,4.489,0,0,1-1.371-.734,1.518,1.518,0,0,1-.514-1.236,1.872,1.872,0,0,1,.783-1.579,3.286,3.286,0,0,1,2.044-.587,3.846,3.846,0,0,1,1.505.269,2.328,2.328,0,0,1,1,.783,1.826,1.826,0,0,1,.367,1.126.129.129,0,0,1-.049.11.166.166,0,0,1-.122.049H33.833a.166.166,0,0,1-.122-.049.129.129,0,0,1-.049-.11.6.6,0,0,0-.294-.5,1.48,1.48,0,0,0-.808-.2,1.456,1.456,0,0,0-.722.159.488.488,0,0,0-.281.441.431.431,0,0,0,.269.4,5.282,5.282,0,0,0,.93.294l.33.086q.2.049.4.11A4.387,4.387,0,0,1,35,47.48a1.584,1.584,0,0,1,.551,1.3,1.809,1.809,0,0,1-.783,1.554,3.56,3.56,0,0,1-2.117.563Zm5.017-7.8A1.045,1.045,0,0,1,36.6,42.035a1.042,1.042,0,0,1,.294-.771,1.069,1.069,0,0,1,.771-.294,1.008,1.008,0,0,1,1.065,1.065,1.03,1.03,0,0,1-.306.759,1,1,0,0,1-.759.306Zm-.808,7.7a.168.168,0,0,1-.159-.159V44.029a.166.166,0,0,1,.049-.122.152.152,0,0,1,.11-.049h1.579a.152.152,0,0,1,.11.049.166.166,0,0,1,.049.122v6.608a.168.168,0,0,1-.159.159Zm9.349-4.173a6.43,6.43,0,0,1,.049,1.15.153.153,0,0,1-.171.159H41.922q-.086,0-.061.061a3.3,3.3,0,0,0,.147.538,1.42,1.42,0,0,0,1.432.759,1.627,1.627,0,0,0,1.358-.7q.061-.086.122-.086a.18.18,0,0,1,.1.049l.967.967a.169.169,0,0,1,.061.11.236.236,0,0,1-.049.11,2.941,2.941,0,0,1-1.138.857,3.854,3.854,0,0,1-1.542.306,3.509,3.509,0,0,1-1.958-.526,2.958,2.958,0,0,1-1.15-1.469,4.63,4.63,0,0,1-.281-1.762,3.984,3.984,0,0,1,.2-1.309,3.195,3.195,0,0,1,5.091-1.3,3.432,3.432,0,0,1,.991,2.08ZM43.06,45.4a1.077,1.077,0,0,0-1.114.8q-.049.171-.1.428a.065.065,0,0,0,.073.073h2.325q.086,0,.049-.073-.061-.392-.061-.379a1.153,1.153,0,0,0-.428-.624,1.21,1.21,0,0,0-.746-.22Zm7.024,5.495a4.378,4.378,0,0,1-1.566-.257,2.407,2.407,0,0,1-1.04-.71,1.6,1.6,0,0,1-.379-1.04v-.135a.166.166,0,0,1,.049-.122.179.179,0,0,1,.11-.037h1.505a.179.179,0,0,1,.11.037.166.166,0,0,1,.049.122v.012a.6.6,0,0,0,.33.5,1.511,1.511,0,0,0,.82.208,1.348,1.348,0,0,0,.746-.184.525.525,0,0,0,.281-.441.392.392,0,0,0-.245-.367,4.119,4.119,0,0,0-.8-.257,8.283,8.283,0,0,1-.991-.306,4.3,4.3,0,0,1-1.371-.734,1.518,1.518,0,0,1-.514-1.236,1.883,1.883,0,0,1,.771-1.579,3.308,3.308,0,0,1,2.056-.587,3.9,3.9,0,0,1,1.505.269,2.328,2.328,0,0,1,1,.783,1.868,1.868,0,0,1,.355,1.126.129.129,0,0,1-.049.11.152.152,0,0,1-.11.049H51.271a.152.152,0,0,1-.11-.049.129.129,0,0,1-.049-.11.6.6,0,0,0-.306-.5,1.417,1.417,0,0,0-.8-.2,1.528,1.528,0,0,0-.734.159.488.488,0,0,0-.281.441.431.431,0,0,0,.281.4,4.858,4.858,0,0,0,.918.294l.343.086.4.11a4.387,4.387,0,0,1,1.505.722,1.584,1.584,0,0,1,.551,1.3,1.809,1.809,0,0,1-.783,1.554,3.618,3.618,0,0,1-2.129.563Zm7.967-5.654a.152.152,0,0,1-.049.11.166.166,0,0,1-.122.049H56.595q-.073,0-.073.061v2.864a1.014,1.014,0,0,0,.184.661.746.746,0,0,0,.587.208h.441a.166.166,0,0,1,.122.049.152.152,0,0,1,.049.11v1.285q0,.147-.171.171-.563.024-.808.024a3.032,3.032,0,0,1-1.664-.367,1.584,1.584,0,0,1-.563-1.4v-3.61q0-.061-.073-.061h-.771a.168.168,0,0,1-.159-.159v-1.2a.166.166,0,0,1,.049-.122.179.179,0,0,1,.11-.037h.771a.065.065,0,0,0,.073-.073v-1.6a.152.152,0,0,1,.049-.11.129.129,0,0,1,.11-.049h1.505a.129.129,0,0,1,.11.049.152.152,0,0,1,.049.11v1.6a.065.065,0,0,0,.073.073H57.88a.2.2,0,0,1,.122.037.166.166,0,0,1,.049.122ZM68.5,41.374a.166.166,0,0,1,.122.049.152.152,0,0,1,.049.11v1.322a.129.129,0,0,1-.049.11.166.166,0,0,1-.122.049H66.091q-.061,0-.061.073v7.551a.168.168,0,0,1-.159.159H64.292a.168.168,0,0,1-.159-.159V43.087a.065.065,0,0,0-.073-.073H61.722a.168.168,0,0,1-.159-.159V41.533a.152.152,0,0,1,.049-.11.129.129,0,0,1,.11-.049H68.5Zm3.182,9.533a3.153,3.153,0,0,1-1.934-.6,2.984,2.984,0,0,1-1.114-1.615,4.843,4.843,0,0,1-.184-1.371,5.033,5.033,0,0,1,.184-1.42,2.923,2.923,0,0,1,1.126-1.566,3.3,3.3,0,0,1,1.934-.563,3.193,3.193,0,0,1,1.885.551,2.97,2.97,0,0,1,1.1,1.566A4.5,4.5,0,0,1,74.9,47.3a4.6,4.6,0,0,1-.2,1.358,3.012,3.012,0,0,1-1.089,1.652,3.153,3.153,0,0,1-1.934.6Zm0-1.628a1.136,1.136,0,0,0,.759-.269,1.511,1.511,0,0,0,.441-.746,3.78,3.78,0,0,0,.11-.942,3.569,3.569,0,0,0-.11-.955,1.466,1.466,0,0,0-.465-.71,1.122,1.122,0,0,0-.746-.257,1.11,1.11,0,0,0-.759.257,1.431,1.431,0,0,0-.441.71,3.177,3.177,0,0,0-.11.955,3.493,3.493,0,0,0,.1.942,1.469,1.469,0,0,0,.453.746A1.154,1.154,0,0,0,71.684,49.279ZM79.1,50.8a.168.168,0,0,1-.159-.159v-9.1a.168.168,0,0,1,.159-.159h3.365a4.149,4.149,0,0,1,1.774.355,2.652,2.652,0,0,1,1.591,2.5v3.72a2.652,2.652,0,0,1-1.591,2.5,4.149,4.149,0,0,1-1.774.355H79.1Zm1.738-1.7q0,.073.061.073h1.64a1.279,1.279,0,0,0,.991-.416,1.6,1.6,0,0,0,.4-1.114v-3.1a1.607,1.607,0,0,0-.379-1.126A1.361,1.361,0,0,0,82.514,43H80.9q-.061,0-.061.073V49.1Zm9.349,1.811a3.153,3.153,0,0,1-1.934-.6,2.924,2.924,0,0,1-1.1-1.615,4.561,4.561,0,0,1-.2-1.371,4.739,4.739,0,0,1,.2-1.42,2.863,2.863,0,0,1,1.114-1.566,3.317,3.317,0,0,1,1.946-.563,3.193,3.193,0,0,1,1.885.551,3.061,3.061,0,0,1,1.1,1.566,4.738,4.738,0,0,1,.208,1.407,4.88,4.88,0,0,1-.184,1.358,2.987,2.987,0,0,1-1.1,1.652,3.119,3.119,0,0,1-1.934.6Zm0-1.628a1.107,1.107,0,0,0,.759-.269,1.511,1.511,0,0,0,.441-.746,3.781,3.781,0,0,0,.11-.942,3.57,3.57,0,0,0-.11-.955,1.507,1.507,0,0,0-.453-.71,1.249,1.249,0,0,0-1.517,0,1.431,1.431,0,0,0-.441.71,3.553,3.553,0,0,0-.1.955,3.971,3.971,0,0,0,.086.942,1.469,1.469,0,0,0,.453.746,1.154,1.154,0,0,0,.771.269Z" transform="translate(2.39 -1.479)" fill="#252530"/>
  <path id="Path_71077" data-name="Path 71077" d="M33.715,77.082a4.179,4.179,0,0,1-1.664-.306,2.551,2.551,0,0,1-1.1-.857,2.23,2.23,0,0,1-.379-1.3v-.306a.152.152,0,0,1,.049-.11.132.132,0,0,1,.1-.037h1.089a.13.13,0,0,1,.147.147v.233a1.111,1.111,0,0,0,.5.93,2.223,2.223,0,0,0,1.371.379,1.716,1.716,0,0,0,1.126-.318,1.021,1.021,0,0,0,.379-.82.877.877,0,0,0-.208-.587,2.026,2.026,0,0,0-.587-.428q-.392-.2-1.163-.49a12.1,12.1,0,0,1-1.407-.6,2.544,2.544,0,0,1-.893-.771,1.909,1.909,0,0,1-.367-1.2,2.058,2.058,0,0,1,.783-1.7,3.262,3.262,0,0,1,2.093-.624,3.942,3.942,0,0,1,1.628.318,2.574,2.574,0,0,1,1.089.893,2.236,2.236,0,0,1,.392,1.309v.208a.152.152,0,0,1-.049.11.132.132,0,0,1-.1.037h-1.1a.132.132,0,0,1-.1-.037.152.152,0,0,1-.049-.11v-.135a1.216,1.216,0,0,0-.465-.967,1.964,1.964,0,0,0-1.309-.4,1.679,1.679,0,0,0-1.04.281.932.932,0,0,0-.379.8.9.9,0,0,0,.2.6,1.7,1.7,0,0,0,.587.416,11.923,11.923,0,0,0,1.212.49,14.4,14.4,0,0,1,1.4.6,2.785,2.785,0,0,1,.893.746,1.962,1.962,0,0,1,.367,1.212,2.114,2.114,0,0,1-.82,1.75A3.443,3.443,0,0,1,33.715,77.082Zm7.905-8.676a2.808,2.808,0,0,1,1.358.318,2.221,2.221,0,0,1,.906.893,2.7,2.7,0,0,1,.33,1.346,2.606,2.606,0,0,1-.33,1.322,2.2,2.2,0,0,1-.93.881,3.007,3.007,0,0,1-1.407.318H39.589a.054.054,0,0,0-.061.061v3.292a.132.132,0,0,1-.037.1.152.152,0,0,1-.11.049H38.255a.173.173,0,0,1-.147-.147V68.553a.152.152,0,0,1,.049-.11.132.132,0,0,1,.1-.037h3.365Zm-.208,3.928a1.382,1.382,0,0,0,1-.367A1.284,1.284,0,0,0,42.8,71a1.341,1.341,0,0,0-.379-.991,1.357,1.357,0,0,0-1-.379H39.589a.054.054,0,0,0-.061.061v2.582a.054.054,0,0,0,.061.061h1.823Zm8.86,4.65a.173.173,0,0,1-.171-.11L48.486,73.35a.078.078,0,0,0-.073-.049H46.944a.054.054,0,0,0-.061.061v3.475a.173.173,0,0,1-.147.147H45.61a.173.173,0,0,1-.147-.147V68.565a.173.173,0,0,1,.147-.147h3.365a2.772,2.772,0,0,1,1.322.306,2.263,2.263,0,0,1,.893.881,2.66,2.66,0,0,1,.318,1.309,2.364,2.364,0,0,1-.428,1.432,2.266,2.266,0,0,1-1.212.832.039.039,0,0,0-.037.024.052.052,0,0,0,0,.049l1.725,3.561a.188.188,0,0,1,.024.073q0,.1-.135.1Zm-3.329-7.343a.054.054,0,0,0-.061.061v2.435a.054.054,0,0,0,.061.061h1.836a1.274,1.274,0,0,0,.942-.355,1.2,1.2,0,0,0,.367-.918,1.235,1.235,0,0,0-.367-.93,1.274,1.274,0,0,0-.942-.355Zm6.168,7.343a.152.152,0,0,1-.11-.049.132.132,0,0,1-.037-.1V68.565a.132.132,0,0,1,.037-.1.152.152,0,0,1,.11-.049h1.126a.173.173,0,0,1,.147.147v8.273a.173.173,0,0,1-.147.147Zm8.04-8.419a.173.173,0,0,1,.147-.147h1.126a.152.152,0,0,1,.11.049.132.132,0,0,1,.037.1v8.273a.132.132,0,0,1-.037.1.152.152,0,0,1-.11.049H61.335a.175.175,0,0,1-.171-.1L57.639,71.11q-.024-.037-.049-.037t-.024.061l.024,5.7a.173.173,0,0,1-.147.147H56.318a.173.173,0,0,1-.147-.147V68.565a.173.173,0,0,1,.147-.147h1.089a.175.175,0,0,1,.171.1l3.512,5.776q.024.037.049.024t.024-.049Zm6.07,8.517a3.515,3.515,0,0,1-1.615-.355A2.618,2.618,0,0,1,64.529,75.7a2.993,2.993,0,0,1-.379-1.517V71.22a3.018,3.018,0,0,1,.379-1.53,2.642,2.642,0,0,1,1.077-1.016,3.826,3.826,0,0,1,3.218,0,2.66,2.66,0,0,1,1.065.967,2.57,2.57,0,0,1,.379,1.383v.1a.132.132,0,0,1-.037.1.152.152,0,0,1-.11.049H69.008a.173.173,0,0,1-.147-.147v-.061a1.434,1.434,0,0,0-.453-1.089A1.836,1.836,0,0,0,66.022,70a1.564,1.564,0,0,0-.453,1.175v3.059a1.561,1.561,0,0,0,.477,1.187,1.75,1.75,0,0,0,1.236.441,1.657,1.657,0,0,0,1.163-.392,1.352,1.352,0,0,0,.416-1.052v-.759a.054.054,0,0,0-.061-.061H67.295a.152.152,0,0,1-.11-.049.132.132,0,0,1-.037-.1v-.906a.132.132,0,0,1,.037-.1.152.152,0,0,1,.11-.049h2.827a.152.152,0,0,1,.11.049.132.132,0,0,1,.037.1v1.566a2.885,2.885,0,0,1-.82,2.191,3.118,3.118,0,0,1-2.227.783Z" transform="translate(6.351 4.64)" fill="#242530"/>
  <path id="Path_71078" data-name="Path 71078" d="M34.114,95.346a.07.07,0,0,0-.024.073.082.082,0,0,0,.073.037h4.809a.2.2,0,0,1,.147.061.185.185,0,0,1,.073.147V97.39a.185.185,0,0,1-.073.147.2.2,0,0,1-.147.061H30.994a.215.215,0,0,1-.159-.061.2.2,0,0,1-.061-.147V95.75a.366.366,0,0,1,.11-.269q.869-.844,1.774-1.848T33.8,92.385q.49-.587,1-1.126,1.615-1.787,1.615-2.656a1.333,1.333,0,0,0-.441-1.028,1.885,1.885,0,0,0-2.3,0,1.358,1.358,0,0,0-.453,1.065v.441a.209.209,0,0,1-.208.208H30.92a.2.2,0,0,1-.147-.061.185.185,0,0,1-.073-.147v-.832a3.143,3.143,0,0,1,.612-1.7,3.53,3.53,0,0,1,1.456-1.126,5.189,5.189,0,0,1,2.056-.392,4.739,4.739,0,0,1,2.191.477,3.49,3.49,0,0,1,1.432,1.26,3.239,3.239,0,0,1,.514,1.774,3.5,3.5,0,0,1-.379,1.53,8.189,8.189,0,0,1-1.114,1.689q-.551.685-1.187,1.371t-1.9,1.946l-.269.269Zm10.842,2.448A4.248,4.248,0,0,1,41.873,96.7a3.921,3.921,0,0,1-1.138-2.974V89.044a3.834,3.834,0,0,1,1.138-2.925,4.248,4.248,0,0,1,3.084-1.089,4.319,4.319,0,0,1,3.1,1.089,3.834,3.834,0,0,1,1.138,2.925v4.687A3.921,3.921,0,0,1,48.053,96.7,4.319,4.319,0,0,1,44.957,97.794Zm0-2.142a1.656,1.656,0,0,0,1.26-.49,1.8,1.8,0,0,0,.477-1.309V88.97a1.779,1.779,0,0,0-.477-1.3,1.852,1.852,0,0,0-2.509,0,1.779,1.779,0,0,0-.477,1.3v4.883a1.8,1.8,0,0,0,.477,1.309A1.64,1.64,0,0,0,44.957,95.652Zm9.2-.306a.053.053,0,0,0-.012.073q.012.037.073.037H59.03a.209.209,0,0,1,.208.208V97.39a.209.209,0,0,1-.208.208H51.039a.209.209,0,0,1-.208-.208V95.75a.391.391,0,0,1,.1-.269q.881-.844,1.774-1.848t1.138-1.248q.5-.587,1.016-1.126,1.615-1.787,1.615-2.656a1.333,1.333,0,0,0-.441-1.028,1.714,1.714,0,0,0-1.163-.392,1.667,1.667,0,0,0-1.15.392,1.376,1.376,0,0,0-.441,1.065v.441a.2.2,0,0,1-.061.147.215.215,0,0,1-.159.061H50.965a.209.209,0,0,1-.208-.208v-.832a3.067,3.067,0,0,1,.6-1.7,3.517,3.517,0,0,1,1.469-1.126,5.157,5.157,0,0,1,2.044-.392,4.739,4.739,0,0,1,2.191.477,3.475,3.475,0,0,1,1.444,1.26,3.3,3.3,0,0,1,.5,1.774,3.59,3.59,0,0,1-.367,1.53,8.651,8.651,0,0,1-1.126,1.689q-.551.685-1.187,1.371t-1.9,1.946l-.269.269Zm15.493-3.157a.244.244,0,0,1,.159.061.2.2,0,0,1,.061.147v1.8a.2.2,0,0,1-.061.147.244.244,0,0,1-.159.061h-.759a.076.076,0,0,0-.086.086v2.9a.2.2,0,0,1-.061.147.244.244,0,0,1-.159.061H66.519a.215.215,0,0,1-.159-.061.2.2,0,0,1-.061-.147v-2.9a.076.076,0,0,0-.086-.086H60.768a.244.244,0,0,1-.159-.061.2.2,0,0,1-.061-.147v-1.42a.777.777,0,0,1,.061-.269L63.8,85.336a.251.251,0,0,1,.245-.159h2.215a.208.208,0,0,1,.171.061q.049.061-.012.184L63.46,92.079a.113.113,0,0,0,0,.073.072.072,0,0,0,.061.037h2.692q.086,0,.086-.1V89.9a.21.21,0,0,1,.22-.22h2.068a.244.244,0,0,1,.159.061.215.215,0,0,1,.061.159v2.191q0,.1.086.1h.759Z" transform="translate(6.38 8.379)" fill="#252530"/>
</svg>
