<svg id="BusinessIntelligence_HighPerformer_HighPerformer" xmlns="http://www.w3.org/2000/svg" width="113.687" height="127.638" viewBox="0 0 113.687 127.638">
  <path id="Path_71056" data-name="Path 71056" d="M8.1,107.487l48.338,24.6,46.5-24.6V11.3H8.1Z" transform="translate(1.323 -8.118)" fill="#fff"/>
  <path id="Path_71057" data-name="Path 71057" d="M104.1,11.6,7.3,109.133l50.174,24.842L104.1,110.112Z" transform="translate(1.144 -8.051)" fill="#f2f3f2"/>
  <path id="Path_71058" data-name="Path 71058" d="M5.5,43.944v66.205l1.713.857,48.338,24.6,1.469.734,1.469-.734,46.625-24.6,1.713-.857V8.7H5.5Zm3.182,64.37V11.882h94.963v96.432l-46.625,24.6Z" transform="translate(0.741 -8.7)" fill="#dcdedc"/>
  <path id="Path_71059" data-name="Path 71059" d="M57.3,13.473a5.958,5.958,0,0,1,1.469.122L57.3,16.41a4.046,4.046,0,0,0-.49,8.077h.49A4.277,4.277,0,0,0,60,23.507L61.588,26.2A7.418,7.418,0,0,1,57.3,27.546a7.043,7.043,0,0,1-.612-14.073H57.3Zm5.017,6,1.836,3.059-1.836,2.937-1.713-2.937H57.06L58.9,19.469Zm-2.937-1.1a2.467,2.467,0,0,1,.367-1.346,4.222,4.222,0,0,1,1.1-.979l.245-.122c.49-.245.612-.367.612-.612s-.367-.49-.612-.49a1.176,1.176,0,0,0-1.1.734l-.612-.612A3.244,3.244,0,0,1,60,14.207a1.819,1.819,0,0,1,1.1-.245,1.708,1.708,0,0,1,1.1.367,1.511,1.511,0,0,1,.49.979,1.4,1.4,0,0,1-1.1,1.346l-.367.245c-.367.245-.612.367-.734.734h2.2v.857l-3.3-.122Zm-2.08,15.3L68.93,27.056V8.7H45.557V26.934L57.3,33.665Zm52.989,43.321H4.316L.4,85.552l3.916,8.566H110.293l3.794-8.566Z" transform="translate(-0.4 -8.7)" fill="#ff492c"/>
  <path id="Path_71060" data-name="Path 71060" d="M18.287,52.945a4.458,4.458,0,0,1,2.129.49,3.42,3.42,0,0,1,1.42,1.407,4.221,4.221,0,0,1,.5,2.08,3.982,3.982,0,0,1-.514,2.044,3.636,3.636,0,0,1-1.469,1.358,4.659,4.659,0,0,1-2.178.49H15.57q-.086,0-.086.1v4.675a.2.2,0,0,1-.073.159.215.215,0,0,1-.159.061H13.11a.21.21,0,0,1-.22-.22V53.165a.21.21,0,0,1,.22-.22h5.176Zm-.392,5.8a1.862,1.862,0,0,0,1.358-.49,1.678,1.678,0,0,0,.514-1.273,1.723,1.723,0,0,0-.514-1.309,1.835,1.835,0,0,0-1.358-.5H15.57q-.086,0-.086.1v3.378q0,.1.086.1ZM31.6,60.116a8.59,8.59,0,0,1,.061,1.554.212.212,0,0,1-.233.233H25.764q-.11,0-.086.086a3.543,3.543,0,0,0,.208.734,1.925,1.925,0,0,0,1.946,1.028A2.179,2.179,0,0,0,29.68,62.8a.231.231,0,0,1,.171-.11.2.2,0,0,1,.122.073l1.322,1.3a.269.269,0,0,1,.1.171.378.378,0,0,1-.073.147,3.966,3.966,0,0,1-1.554,1.163,5.268,5.268,0,0,1-2.1.416,4.821,4.821,0,0,1-2.668-.71,4.014,4.014,0,0,1-1.566-2.007,6.186,6.186,0,0,1-.392-2.4,5.2,5.2,0,0,1,.281-1.787,4.038,4.038,0,0,1,3.977-2.839,4.09,4.09,0,0,1,2.949,1.065A4.672,4.672,0,0,1,31.6,60.116Zm-4.283-1.664a1.475,1.475,0,0,0-1.53,1.077,4.08,4.08,0,0,0-.122.587q0,.086.1.086h3.17q.11,0,.073-.086-.1-.526-.1-.514a1.564,1.564,0,0,0-.575-.857A1.682,1.682,0,0,0,27.318,58.452Zm10.647-2.2a1.9,1.9,0,0,1,1.052.257.226.226,0,0,1,.1.269l-.379,2.093q-.012.22-.257.135a1.93,1.93,0,0,0-.636-.1,3.307,3.307,0,0,0-.416.037,1.856,1.856,0,0,0-1.114.49,1.508,1.508,0,0,0-.453,1.15v5.005a.2.2,0,0,1-.073.159.2.2,0,0,1-.147.061H33.486a.244.244,0,0,1-.159-.061.215.215,0,0,1-.061-.159V56.592a.21.21,0,0,1,.22-.22H35.64a.2.2,0,0,1,.147.061.222.222,0,0,1,.073.159v.7a.082.082,0,0,0,.037.073q.024.024.049-.024a2.348,2.348,0,0,1,2.019-1.089Zm7.82.11a.21.21,0,0,1,.22.22v1.738a.21.21,0,0,1-.22.22H44.01q-.1,0-.1.086v6.963a.21.21,0,0,1-.22.22H41.55a.21.21,0,0,1-.22-.22V58.623q0-.086-.1-.086H40.155a.21.21,0,0,1-.22-.22V56.579a.21.21,0,0,1,.22-.22h1.077a.087.087,0,0,0,.1-.1v-.4a3.787,3.787,0,0,1,.343-1.774A1.989,1.989,0,0,1,42.8,53.19a6.385,6.385,0,0,1,2.166-.233h.7a.2.2,0,0,1,.147.061.222.222,0,0,1,.073.159v1.481a.2.2,0,0,1-.073.159.185.185,0,0,1-.147.073H45.05a.954.954,0,0,0-1.138,1.175v.2a.087.087,0,0,0,.1.1h1.774Zm5.323,9.594a4.347,4.347,0,0,1-2.643-.808,4.035,4.035,0,0,1-1.505-2.2,6.493,6.493,0,0,1-.257-1.872,6.852,6.852,0,0,1,.257-1.946A3.975,3.975,0,0,1,48.489,57a4.492,4.492,0,0,1,2.643-.771,4.347,4.347,0,0,1,2.57.759A4.137,4.137,0,0,1,55.2,59.113a6.035,6.035,0,0,1,.306,1.921,6.528,6.528,0,0,1-.257,1.86,4.041,4.041,0,0,1-1.505,2.239A4.249,4.249,0,0,1,51.108,65.953Zm0-2.215a1.527,1.527,0,0,0,1.028-.367,2.021,2.021,0,0,0,.612-1.016,5.752,5.752,0,0,0,.135-1.285,5.322,5.322,0,0,0-.135-1.3,2.14,2.14,0,0,0-.624-.979,1.613,1.613,0,0,0-1.04-.343,1.564,1.564,0,0,0-1.028.343,1.983,1.983,0,0,0-.6.979,4.272,4.272,0,0,0-.147,1.3,4.74,4.74,0,0,0,.135,1.285,2.021,2.021,0,0,0,.612,1.016,1.561,1.561,0,0,0,1.052.367Zm10.757-7.489a1.9,1.9,0,0,1,1.052.257.209.209,0,0,1,.1.269l-.379,2.093q-.012.22-.257.135a1.93,1.93,0,0,0-.636-.1,3.035,3.035,0,0,0-.4.037,1.869,1.869,0,0,0-1.126.49,1.508,1.508,0,0,0-.453,1.15v5.005a.2.2,0,0,1-.073.159.215.215,0,0,1-.159.061H57.386a.244.244,0,0,1-.159-.061.215.215,0,0,1-.061-.159V56.592a.21.21,0,0,1,.22-.22h2.142a.215.215,0,0,1,.159.061.222.222,0,0,1,.073.159v.7a.1.1,0,0,0,.024.073q.049.024.061-.024a2.348,2.348,0,0,1,2.019-1.089Zm12.788-.024a2.929,2.929,0,0,1,2.239.857,3.441,3.441,0,0,1,.808,2.435v6.07a.215.215,0,0,1-.061.159.2.2,0,0,1-.147.061H75.338a.244.244,0,0,1-.159-.061.215.215,0,0,1-.061-.159V60.079a1.757,1.757,0,0,0-.379-1.187,1.324,1.324,0,0,0-1.04-.441,1.347,1.347,0,0,0-1.04.441,1.671,1.671,0,0,0-.4,1.175v5.519a.215.215,0,0,1-.061.159.244.244,0,0,1-.159.061H69.9a.21.21,0,0,1-.22-.22V60.079a1.717,1.717,0,0,0-.4-1.187,1.361,1.361,0,0,0-1.052-.441,1.462,1.462,0,0,0-.979.343,1.5,1.5,0,0,0-.465.979v5.813a.215.215,0,0,1-.061.159.244.244,0,0,1-.159.061H64.422a.21.21,0,0,1-.22-.22V56.592a.244.244,0,0,1,.061-.159.215.215,0,0,1,.159-.061h2.142a.21.21,0,0,1,.22.22v.722a.082.082,0,0,0,.037.073q.037.012.073-.049a2.632,2.632,0,0,1,2.337-1.114,3.176,3.176,0,0,1,1.6.392,2.544,2.544,0,0,1,1.052,1.1q.049.11.135,0a2.553,2.553,0,0,1,1.089-1.126A3.213,3.213,0,0,1,74.653,56.224Zm13.168,3.892a7.851,7.851,0,0,1,.073,1.554.226.226,0,0,1-.245.233H81.983q-.11,0-.073.086a3.063,3.063,0,0,0,.2.734,1.925,1.925,0,0,0,1.946,1.028,2.211,2.211,0,0,0,1.86-.955.2.2,0,0,1,.159-.11.2.2,0,0,1,.135.073l1.322,1.3a.281.281,0,0,1,.086.171.378.378,0,0,1-.073.147,3.852,3.852,0,0,1-1.554,1.163,5.18,5.18,0,0,1-2.093.416,4.783,4.783,0,0,1-2.668-.71,3.992,3.992,0,0,1-1.579-2.007,6.366,6.366,0,0,1-.379-2.4,5.414,5.414,0,0,1,.269-1.787,4.076,4.076,0,0,1,1.481-2.068,4.548,4.548,0,0,1,5.458.294,4.617,4.617,0,0,1,1.346,2.839Zm-4.283-1.664a1.467,1.467,0,0,0-1.517,1.077,5.344,5.344,0,0,0-.135.587q0,.086.1.086h3.17q.11,0,.073-.086-.086-.526-.086-.514a1.655,1.655,0,0,0-.575-.857A1.738,1.738,0,0,0,83.537,58.452Zm10.647-2.2a1.9,1.9,0,0,1,1.052.257.222.222,0,0,1,.11.269l-.379,2.093q-.024.22-.269.135a1.863,1.863,0,0,0-.636-.1,3.035,3.035,0,0,0-.4.037,1.869,1.869,0,0,0-1.126.49,1.508,1.508,0,0,0-.453,1.15v5.005a.215.215,0,0,1-.061.159.244.244,0,0,1-.159.061H89.705a.2.2,0,0,1-.147-.061.2.2,0,0,1-.073-.159V56.592a.222.222,0,0,1,.073-.159.2.2,0,0,1,.147-.061h2.154a.21.21,0,0,1,.22.22v.7a.082.082,0,0,0,.037.073q.037.024.061-.024A2.318,2.318,0,0,1,94.184,56.249ZM43.692,34.821a.244.244,0,0,1,.061-.159A.2.2,0,0,1,43.9,34.6h2.154a.21.21,0,0,1,.22.22V47.23a.215.215,0,0,1-.061.159.244.244,0,0,1-.159.061H43.9a.2.2,0,0,1-.147-.061.215.215,0,0,1-.061-.159V42.163q0-.086-.1-.086H39.531a.076.076,0,0,0-.086.086V47.23a.215.215,0,0,1-.061.159.244.244,0,0,1-.159.061H37.071a.2.2,0,0,1-.147-.061.2.2,0,0,1-.073-.159V34.821a.222.222,0,0,1,.073-.159.2.2,0,0,1,.147-.061h2.154a.21.21,0,0,1,.22.22v4.932q0,.1.086.1h4.063a.087.087,0,0,0,.1-.1Zm5.923,2.129a1.411,1.411,0,0,1-1.04-.416,1.371,1.371,0,0,1-.416-1.028,1.457,1.457,0,1,1,2.913,0,1.371,1.371,0,0,1-.416,1.028,1.411,1.411,0,0,1-1.04.416Zm-1.1,10.5a.244.244,0,0,1-.159-.061.215.215,0,0,1-.061-.159V38.223a.215.215,0,0,1,.061-.159A.244.244,0,0,1,48.514,38h2.154a.2.2,0,0,1,.147.061.2.2,0,0,1,.073.159V47.23a.2.2,0,0,1-.073.159.2.2,0,0,1-.147.061Zm10.145-9.215a.222.222,0,0,1,.073-.159.2.2,0,0,1,.147-.061h2.154a.21.21,0,0,1,.22.22v8.37a3.992,3.992,0,0,1-1.383,3.427,5.786,5.786,0,0,1-3.573,1.04,11.62,11.62,0,0,1-1.432-.1.2.2,0,0,1-.184-.233l.073-1.9q0-.245.257-.208a7.415,7.415,0,0,0,1.212.11,2.866,2.866,0,0,0,1.811-.5,2.043,2.043,0,0,0,.624-1.652q0-.061-.037-.073t-.073.037a2.646,2.646,0,0,1-2.031.746,4.286,4.286,0,0,1-2.191-.575,3.205,3.205,0,0,1-1.432-1.86,7.375,7.375,0,0,1-.269-2.191,6.823,6.823,0,0,1,.33-2.325,3.593,3.593,0,0,1,1.3-1.8,3.481,3.481,0,0,1,2.142-.685,2.723,2.723,0,0,1,2.154.844.07.07,0,0,0,.073.024.057.057,0,0,0,.037-.061v-.441Zm-.147,5.923a6,6,0,0,0,.147-1.505,7.791,7.791,0,0,0-.037-.869,3.392,3.392,0,0,0-.122-.6,1.732,1.732,0,0,0-.551-.8,1.513,1.513,0,0,0-.955-.294,1.474,1.474,0,0,0-.93.294,1.779,1.779,0,0,0-.575.8,3.585,3.585,0,0,0-.257,1.493,3.533,3.533,0,0,0,.22,1.469,1.5,1.5,0,0,0,.575.8,1.608,1.608,0,0,0,.979.306,1.542,1.542,0,0,0,.979-.306,1.51,1.51,0,0,0,.526-.783Zm9.521-6.29a3.169,3.169,0,0,1,2.362.906,3.291,3.291,0,0,1,.893,2.435V47.23a.215.215,0,0,1-.061.159.2.2,0,0,1-.147.061H68.926a.244.244,0,0,1-.159-.061.215.215,0,0,1-.061-.159V41.735a1.713,1.713,0,0,0-.416-1.187A1.386,1.386,0,0,0,67.2,40.1a1.41,1.41,0,0,0-1.089.453,1.713,1.713,0,0,0-.416,1.187V47.23a.21.21,0,0,1-.22.22H63.333a.21.21,0,0,1-.22-.22V34.821a.244.244,0,0,1,.061-.159.215.215,0,0,1,.159-.061h2.142a.215.215,0,0,1,.159.061.244.244,0,0,1,.061.159v4.063a.082.082,0,0,0,.037.073.034.034,0,0,0,.049-.024,2.586,2.586,0,0,1,2.252-1.065Z" transform="translate(2.395 -3.028)" fill="#252530"/>
  <path id="Path_71061" data-name="Path 71061" d="M33.715,77.082a4.179,4.179,0,0,1-1.664-.306,2.551,2.551,0,0,1-1.1-.857,2.23,2.23,0,0,1-.379-1.3v-.306a.152.152,0,0,1,.049-.11.132.132,0,0,1,.1-.037h1.089a.13.13,0,0,1,.147.147v.233a1.111,1.111,0,0,0,.5.93,2.223,2.223,0,0,0,1.371.379,1.716,1.716,0,0,0,1.126-.318,1.021,1.021,0,0,0,.379-.82.877.877,0,0,0-.208-.587,2.026,2.026,0,0,0-.587-.428q-.392-.2-1.163-.49a12.1,12.1,0,0,1-1.407-.6,2.544,2.544,0,0,1-.893-.771,1.909,1.909,0,0,1-.367-1.2,2.058,2.058,0,0,1,.783-1.7,3.262,3.262,0,0,1,2.093-.624,3.942,3.942,0,0,1,1.628.318,2.574,2.574,0,0,1,1.089.893,2.236,2.236,0,0,1,.392,1.309v.208a.152.152,0,0,1-.049.11.132.132,0,0,1-.1.037h-1.1a.132.132,0,0,1-.1-.037.152.152,0,0,1-.049-.11v-.135a1.216,1.216,0,0,0-.465-.967,1.964,1.964,0,0,0-1.309-.4,1.679,1.679,0,0,0-1.04.281.932.932,0,0,0-.379.8.9.9,0,0,0,.2.6,1.7,1.7,0,0,0,.587.416,11.923,11.923,0,0,0,1.212.49,14.4,14.4,0,0,1,1.4.6,2.785,2.785,0,0,1,.893.746,1.962,1.962,0,0,1,.367,1.212,2.114,2.114,0,0,1-.82,1.75A3.443,3.443,0,0,1,33.715,77.082Zm7.905-8.676a2.808,2.808,0,0,1,1.358.318,2.221,2.221,0,0,1,.906.893,2.7,2.7,0,0,1,.33,1.346,2.606,2.606,0,0,1-.33,1.322,2.2,2.2,0,0,1-.93.881,3.007,3.007,0,0,1-1.407.318H39.589a.054.054,0,0,0-.061.061v3.292a.132.132,0,0,1-.037.1.152.152,0,0,1-.11.049H38.255a.173.173,0,0,1-.147-.147V68.553a.152.152,0,0,1,.049-.11.132.132,0,0,1,.1-.037h3.365Zm-.208,3.928a1.382,1.382,0,0,0,1-.367A1.284,1.284,0,0,0,42.8,71a1.341,1.341,0,0,0-.379-.991,1.357,1.357,0,0,0-1-.379H39.589a.054.054,0,0,0-.061.061v2.582a.054.054,0,0,0,.061.061h1.823Zm8.86,4.65a.173.173,0,0,1-.171-.11L48.486,73.35a.078.078,0,0,0-.073-.049H46.944a.054.054,0,0,0-.061.061v3.475a.173.173,0,0,1-.147.147H45.61a.173.173,0,0,1-.147-.147V68.565a.173.173,0,0,1,.147-.147h3.365a2.772,2.772,0,0,1,1.322.306,2.263,2.263,0,0,1,.893.881,2.66,2.66,0,0,1,.318,1.309,2.364,2.364,0,0,1-.428,1.432,2.266,2.266,0,0,1-1.212.832.039.039,0,0,0-.037.024.052.052,0,0,0,0,.049l1.725,3.561a.188.188,0,0,1,.024.073q0,.1-.135.1Zm-3.329-7.343a.054.054,0,0,0-.061.061v2.435a.054.054,0,0,0,.061.061h1.836a1.274,1.274,0,0,0,.942-.355,1.2,1.2,0,0,0,.367-.918,1.235,1.235,0,0,0-.367-.93,1.274,1.274,0,0,0-.942-.355Zm6.168,7.343a.152.152,0,0,1-.11-.049.132.132,0,0,1-.037-.1V68.565a.132.132,0,0,1,.037-.1.152.152,0,0,1,.11-.049h1.126a.173.173,0,0,1,.147.147v8.273a.173.173,0,0,1-.147.147Zm8.04-8.419a.173.173,0,0,1,.147-.147h1.126a.152.152,0,0,1,.11.049.132.132,0,0,1,.037.1v8.273a.132.132,0,0,1-.037.1.152.152,0,0,1-.11.049H61.335a.175.175,0,0,1-.171-.1L57.639,71.11q-.024-.037-.049-.037t-.024.061l.024,5.7a.173.173,0,0,1-.147.147H56.318a.173.173,0,0,1-.147-.147V68.565a.173.173,0,0,1,.147-.147h1.089a.175.175,0,0,1,.171.1l3.512,5.776q.024.037.049.024t.024-.049Zm6.07,8.517a3.515,3.515,0,0,1-1.615-.355A2.618,2.618,0,0,1,64.529,75.7a2.993,2.993,0,0,1-.379-1.517V71.22a3.018,3.018,0,0,1,.379-1.53,2.642,2.642,0,0,1,1.077-1.016,3.826,3.826,0,0,1,3.218,0,2.66,2.66,0,0,1,1.065.967,2.57,2.57,0,0,1,.379,1.383v.1a.132.132,0,0,1-.037.1.152.152,0,0,1-.11.049H69.008a.173.173,0,0,1-.147-.147v-.061a1.434,1.434,0,0,0-.453-1.089A1.836,1.836,0,0,0,66.022,70a1.564,1.564,0,0,0-.453,1.175v3.059a1.561,1.561,0,0,0,.477,1.187,1.75,1.75,0,0,0,1.236.441,1.657,1.657,0,0,0,1.163-.392,1.352,1.352,0,0,0,.416-1.052v-.759a.054.054,0,0,0-.061-.061H67.295a.152.152,0,0,1-.11-.049.132.132,0,0,1-.037-.1v-.906a.132.132,0,0,1,.037-.1.152.152,0,0,1,.11-.049h2.827a.152.152,0,0,1,.11.049.132.132,0,0,1,.037.1v1.566a2.885,2.885,0,0,1-.82,2.191,3.118,3.118,0,0,1-2.227.783Z" transform="translate(6.351 4.64)" fill="#fff"/>
  <path id="Path_71062" data-name="Path 71062" d="M34.114,95.346a.07.07,0,0,0-.024.073.082.082,0,0,0,.073.037h4.809a.2.2,0,0,1,.147.061.185.185,0,0,1,.073.147V97.39a.185.185,0,0,1-.073.147.2.2,0,0,1-.147.061H30.994a.215.215,0,0,1-.159-.061.2.2,0,0,1-.061-.147V95.75a.366.366,0,0,1,.11-.269q.869-.844,1.774-1.848T33.8,92.385q.49-.587,1-1.126,1.615-1.787,1.615-2.656a1.333,1.333,0,0,0-.441-1.028,1.885,1.885,0,0,0-2.3,0,1.358,1.358,0,0,0-.453,1.065v.441a.209.209,0,0,1-.208.208H30.92a.2.2,0,0,1-.147-.061.185.185,0,0,1-.073-.147v-.832a3.143,3.143,0,0,1,.612-1.7,3.53,3.53,0,0,1,1.456-1.126,5.189,5.189,0,0,1,2.056-.392,4.739,4.739,0,0,1,2.191.477,3.49,3.49,0,0,1,1.432,1.26,3.239,3.239,0,0,1,.514,1.774,3.5,3.5,0,0,1-.379,1.53,8.189,8.189,0,0,1-1.114,1.689q-.551.685-1.187,1.371t-1.9,1.946l-.269.269Zm10.842,2.448A4.248,4.248,0,0,1,41.873,96.7a3.921,3.921,0,0,1-1.138-2.974V89.044a3.834,3.834,0,0,1,1.138-2.925,4.248,4.248,0,0,1,3.084-1.089,4.319,4.319,0,0,1,3.1,1.089,3.834,3.834,0,0,1,1.138,2.925v4.687A3.921,3.921,0,0,1,48.053,96.7,4.319,4.319,0,0,1,44.957,97.794Zm0-2.142a1.656,1.656,0,0,0,1.26-.49,1.8,1.8,0,0,0,.477-1.309V88.97a1.779,1.779,0,0,0-.477-1.3,1.852,1.852,0,0,0-2.509,0,1.779,1.779,0,0,0-.477,1.3v4.883a1.8,1.8,0,0,0,.477,1.309A1.64,1.64,0,0,0,44.957,95.652Zm9.2-.306a.053.053,0,0,0-.012.073q.012.037.073.037H59.03a.209.209,0,0,1,.208.208V97.39a.209.209,0,0,1-.208.208H51.039a.209.209,0,0,1-.208-.208V95.75a.391.391,0,0,1,.1-.269q.881-.844,1.774-1.848t1.138-1.248q.5-.587,1.016-1.126,1.615-1.787,1.615-2.656a1.333,1.333,0,0,0-.441-1.028,1.714,1.714,0,0,0-1.163-.392,1.667,1.667,0,0,0-1.15.392,1.376,1.376,0,0,0-.441,1.065v.441a.2.2,0,0,1-.061.147.215.215,0,0,1-.159.061H50.965a.209.209,0,0,1-.208-.208v-.832a3.067,3.067,0,0,1,.6-1.7,3.517,3.517,0,0,1,1.469-1.126,5.157,5.157,0,0,1,2.044-.392,4.739,4.739,0,0,1,2.191.477,3.475,3.475,0,0,1,1.444,1.26,3.3,3.3,0,0,1,.5,1.774,3.59,3.59,0,0,1-.367,1.53,8.651,8.651,0,0,1-1.126,1.689q-.551.685-1.187,1.371t-1.9,1.946l-.269.269Zm15.493-3.157a.244.244,0,0,1,.159.061.2.2,0,0,1,.061.147v1.8a.2.2,0,0,1-.061.147.244.244,0,0,1-.159.061h-.759a.076.076,0,0,0-.086.086v2.9a.2.2,0,0,1-.061.147.244.244,0,0,1-.159.061H66.519a.215.215,0,0,1-.159-.061.2.2,0,0,1-.061-.147v-2.9a.076.076,0,0,0-.086-.086H60.768a.244.244,0,0,1-.159-.061.2.2,0,0,1-.061-.147v-1.42a.777.777,0,0,1,.061-.269L63.8,85.336a.251.251,0,0,1,.245-.159h2.215a.208.208,0,0,1,.171.061q.049.061-.012.184L63.46,92.079a.113.113,0,0,0,0,.073.072.072,0,0,0,.061.037h2.692q.086,0,.086-.1V89.9a.21.21,0,0,1,.22-.22h2.068a.244.244,0,0,1,.159.061.215.215,0,0,1,.061.159v2.191q0,.1.086.1h.759Z" transform="translate(6.38 8.379)" fill="#252530"/>
</svg>
