<svg xmlns="http://www.w3.org/2000/svg" xmlns:xlink="http://www.w3.org/1999/xlink" width="268" height="118" viewBox="0 0 268 118">
  <defs>
    <clipPath id="clip-path">
      <rect id="Rectangle_14405" data-name="Rectangle 14405" width="228" height="66" fill="none"/>
    </clipPath>
  </defs>
  <g id="Group_24618" data-name="Group 24618" transform="translate(15176 -1424)">
    <rect id="Rectangle_14406" data-name="Rectangle 14406" width="268" height="118" transform="translate(-15176 1424)" fill="#fff"/>
    <g id="Group_24603" data-name="Group 24603" transform="translate(-15156 1460)">
      <g id="Group_24602" data-name="Group 24602" transform="translate(0 0)" clip-path="url(#clip-path)">
        <path id="Path_55255" data-name="Path 55255" d="M0,12.019c.6-1.506,1.086-3.066,1.818-4.5A7.613,7.613,0,0,1,5.237,4.257v28.02A18.334,18.334,0,0,0,8.178,42.49c.135.209.3.4.643.839V14.906l3.675-.83V47.112l4.212,2.727V13.163l3.613-.788V59.134c-.365-.22-.668-.379-.949-.575-3.216-2.256-6.385-4.57-9.661-6.761A21.624,21.624,0,0,1,.261,36.462C.2,36.111.085,35.76,0,35.407V12.028" transform="translate(0 1.181)" fill="#272725"/>
        <path id="Path_55256" data-name="Path 55256" d="M29.229,12.4l3.493.761V49.83l4.212-2.719v-33l3.592.747V43.043l.238.133c.261-.307.551-.594.783-.921a16.419,16.419,0,0,0,2.7-9.807V4.234a8.823,8.823,0,0,1,4.3,4.987,15.332,15.332,0,0,1,.877,4.655c.1,6.3.084,12.612.028,18.919-.06,6.715-2.084,12.752-7.343,17.125-4.007,3.34-8.455,6.132-12.883,9.3Z" transform="translate(8.042 1.174)" fill="#272725"/>
        <path id="Path_55257" data-name="Path 55257" d="M77.051,13.474c4.47,0,8.884-.019,13.3.011a26.7,26.7,0,0,1,4.319.255,3.393,3.393,0,0,1,3.055,3.7c0,.018,0,.037-.006.056.017,4.155,0,8.312,0,12.467a2.883,2.883,0,0,1-2.425,3.278,2.727,2.727,0,0,1-.383.031c-.208.033-.416.07-.754.13L98.3,42.543H89.966L86.1,33.379h-1.03V42.5H77.054Zm12.576,5.174h-4.5v9.893h4.5Z" transform="translate(21.204 3.736)" fill="#272725"/>
        <path id="Path_55258" data-name="Path 55258" d="M143.806,13.5h8.234a8.042,8.042,0,0,1-.205.865c-1.38,3.837-2.79,7.661-4.123,11.514a3.514,3.514,0,0,0-.047,2.007c1.366,4.657,2.808,9.3,4.212,13.941a6.614,6.614,0,0,1,.126.7h-8.75l-3.169-11.891H138.5v11.9h-8.151v-29h8.1V25.877l1.229.066L143.81,13.5" transform="translate(35.873 3.743)" fill="#272725"/>
        <path id="Path_55259" data-name="Path 55259" d="M96.019,13.514h8.154V37.35h4.366V13.524h8.3V37.465c0,3.469-.987,4.8-4.42,4.955-4.211.2-8.457.116-12.679-.052a3.608,3.608,0,0,1-3.787-3.421,3.556,3.556,0,0,1,.013-.547c-.033-8.087-.014-16.172-.013-24.269,0-.176.036-.351.064-.616" transform="translate(26.405 3.748)" fill="#272725"/>
        <path id="Path_55260" data-name="Path 55260" d="M46.5,4.371v7.34L30.9,8.312V26.224l-4.051-2.845L22.79,26.128V8.284L7.09,11.707V4.336c1.264-.287,2.55-.59,3.838-.879Q18.578,1.769,26.243.091a2.346,2.346,0,0,1,.965-.064q9.344,2.044,18.679,4.128a6.045,6.045,0,0,1,.615.217" transform="translate(1.951 0.001)" fill="#de6c16"/>
        <path id="Path_55261" data-name="Path 55261" d="M78.762,8.521l1.978,6.531H71.827V43.881H63.579V15.129H54.406l2.105-6.608Z" transform="translate(14.972 2.364)" fill="#272725"/>
        <path id="Path_55262" data-name="Path 55262" d="M160.385,8.647h22.1l1.931,6.293h-8.928V43.7h-7.971V15.031H158.37Z" transform="translate(43.583 2.398)" fill="#de6c16"/>
        <path id="Path_55263" data-name="Path 55263" d="M130.313,13.519l1.381,5.389h-8.383V37.119h8.382l-1.4,5.292c-.115.077-.176.152-.236.149-3.708-.037-7.422.019-11.122-.156-2.765-.132-3.961-1.583-3.965-4.342q-.015-10.18,0-20.362c0-2.564,1.072-4.02,3.608-4.136,3.884-.176,7.78-.047,11.736-.047" transform="translate(31.636 3.737)" fill="#272725"/>
        <rect id="Rectangle_14404" data-name="Rectangle 14404" width="7.636" height="35.021" transform="translate(191.951 11.077)" fill="#de6c16"/>
        <path id="Path_55264" data-name="Path 55264" d="M27.407,54.714l-4.021,2.7-3.939-2.636V31.042l4,2.7,3.965-2.774Z" transform="translate(5.352 8.59)" fill="#de6c16"/>
        <path id="Path_55265" data-name="Path 55265" d="M27.478,24.073v5.765L23.4,32.7l-3.963-2.763V24.016l3.939-2.8Z" transform="translate(5.348 5.884)" fill="#de6c16"/>
      </g>
    </g>
  </g>
</svg>
