<svg xmlns="http://www.w3.org/2000/svg" xmlns:xlink="http://www.w3.org/1999/xlink" width="126" height="118" viewBox="0 0 126 118">
  <defs>
    <clipPath id="clip-path">
      <rect id="Rectangle_14393" data-name="Rectangle 14393" width="86" height="103.337" fill="none"/>
    </clipPath>
  </defs>
  <g id="Group_24622" data-name="Group 24622" transform="translate(16066 -1424)">
    <rect id="Rectangle_14408" data-name="Rectangle 14408" width="126" height="118" transform="translate(-16066 1424)" fill="#fff"/>
    <g id="Group_24581" data-name="Group 24581" transform="translate(-16046 1437)">
      <path id="Path_55233" data-name="Path 55233" d="M26.837,8.212,1.733,22.866.986,26.06l.373,42.652,9.483,11.835L39.295,95.765,74.254,78.48l7.252-17.473L80.762,4.454,54.357,3.7Z" transform="translate(1.268 4.761)" fill="#301506"/>
      <g id="Group_24580" data-name="Group 24580" transform="translate(0 0)">
        <g id="Group_24579" data-name="Group 24579" clip-path="url(#clip-path)">
          <path id="Path_55234" data-name="Path 55234" d="M43,0C26.413,0,11.948,3.242,0,9.636V60.744C0,71.5,4,80.492,11.572,86.758,18.6,92.578,40.335,102.171,43,103.334c2.527-1.109,24.518-10.85,31.435-16.577C82,80.5,86,71.5,86,60.744V9.636C74.05,3.242,59.585,0,43,0ZM67.552,9.9c4.945.066,9.8.375,14.495.814V60.744c0,9.615-3.455,17.381-10.123,22.927C65.969,88.623,48.008,96.748,43,98.979c-5.078-2.261-23.083-10.489-28.933-15.308C7.438,78.224,3.949,70.273,3.949,60.746V31.512C22.994,13.874,46.122,9.615,67.55,9.9Zm-23.434,23.3a17.947,17.947,0,0,0-10.084,2.688V85.107h7.485v-15.9a11.728,11.728,0,0,0,3.367.43c8.3,0,13.071-7.556,13.071-18.588C57.957,40.037,53.044,33.194,44.118,33.194Zm25.571,0c-4.922.144-10.069,3.745-10.037,9.846.011,4.019,1.114,7.023,7.281,10.678,3.292,1.95,4.619,3.235,4.675,5.606.063,2.636-1.741,4.225-4.485,4.213a11.865,11.865,0,0,1-7.152-3.075v6.954a16.27,16.27,0,0,0,8.221,2.343c7.395,0,10.7-5.274,10.838-10.1.14-4.405-1.066-7.736-7.318-11.447-2.789-1.651-4.992-2.736-4.92-5.487.075-2.684,2.28-3.626,4.4-3.607a9.979,9.979,0,0,1,6.7,3.1V35.65A12.708,12.708,0,0,0,69.689,33.194ZM7.77,33.958V57.7c0,8.006,3.752,12.057,11.153,12.057a19.733,19.733,0,0,0,11.271-3.031V33.958H22.727V62.429a6.216,6.216,0,0,1-3.539.924c-3.428,0-3.94-3.173-3.94-5.315V33.96H7.77Zm36.4,5.32c4.34,0,6.14,3.5,6.14,11.961,0,8.257-2.058,12.247-6.362,12.247a6.989,6.989,0,0,1-2.429-.457v-23.2A6.443,6.443,0,0,1,44.168,39.278Z" transform="translate(0 0.001)" fill="#fab80a"/>
        </g>
      </g>
    </g>
  </g>
</svg>
