<svg xmlns="http://www.w3.org/2000/svg" width="124" height="82" viewBox="0 0 124 82">
  <g id="Group_59066" data-name="Group 59066" transform="translate(0.122 0.188)">
    <rect id="Rectangle_14407" data-name="Rectangle 14407" width="124" height="82" transform="translate(-0.122 -0.188)" fill="#fff"/>
    <g id="Group_24586" data-name="Group 24586" transform="translate(13.55 24.141)">
      <path id="Path_55235" data-name="Path 55235" d="M97.94,4.02,115.8,34.948h9.7L107.641,4.02Z" transform="translate(-30.551 -1.228)" fill="#056386"/>
      <path id="Path_55236" data-name="Path 55236" d="M123.842,0,119,8.378h9.7L133.54,0Z" transform="translate(-36.982 0)" fill="#056386"/>
      <path id="Path_55237" data-name="Path 55237" d="M97.94,42.973h9.7l2.465-4.27-4.849-8.4Z" transform="translate(-30.422 -9.252)" fill="#056386"/>
      <path id="Path_55238" data-name="Path 55238" d="M0,37.4H8.158V26.191L0,12.06Z" transform="translate(0 -3.682)" fill="#056386"/>
      <path id="Path_55239" data-name="Path 55239" d="M26.014,4.02,17.856,18.15,9.7,4.02H0L8.158,18.15l9.7,16.8,9.7-16.8v16.8h8.158V4.02Z" transform="translate(0 -1.228)" fill="#056386"/>
      <path id="Path_55240" data-name="Path 55240" d="M56.056,37.4h8.158V26.191L56.056,12.06Z" transform="translate(-17.398 -3.682)" fill="#056386"/>
      <path id="Path_55241" data-name="Path 55241" d="M75.454,4.02v16.8l-9.7-16.8h-9.7L64.214,18.15l3.518,6.094,6.179,10.7h9.7V4.02Z" transform="translate(-17.477 -1.228)" fill="#056386"/>
    </g>
  </g>
</svg>
