<svg id="RoutePlanning_MomentumLeader_Leader" xmlns="http://www.w3.org/2000/svg" width="113.687" height="127.638" viewBox="0 0 113.687 127.638">
  <path id="Path_71124" data-name="Path 71124" d="M8.1,107.487l48.338,24.6,46.5-24.6V11.3H8.1Z" transform="translate(1.323 -8.118)" fill="#fff"/>
  <path id="Path_71125" data-name="Path 71125" d="M104.1,11.6,7.3,109.133l50.174,24.842L104.1,110.112Z" transform="translate(1.144 -8.051)" fill="#f2f3f2"/>
  <path id="Path_71126" data-name="Path 71126" d="M5.5,43.944v66.205l1.713.857,48.338,24.6,1.469.734,1.469-.734,46.625-24.6,1.713-.857V8.7H5.5Zm3.182,64.37V11.882h94.963v96.432l-46.625,24.6Z" transform="translate(0.741 -8.7)" fill="#dcdedc"/>
  <path id="Path_71127" data-name="Path 71127" d="M57.3,13.473a5.958,5.958,0,0,1,1.469.122L57.3,16.41a4.046,4.046,0,0,0-.49,8.077h.49A4.277,4.277,0,0,0,60,23.507L61.588,26.2A7.418,7.418,0,0,1,57.3,27.546a7.043,7.043,0,0,1-.612-14.073H57.3Zm5.017,6,1.836,3.059-1.836,2.937-1.713-2.937H57.06L58.9,19.469Zm-2.937-1.1a2.467,2.467,0,0,1,.367-1.346,4.222,4.222,0,0,1,1.1-.979l.245-.122c.49-.245.612-.367.612-.612s-.367-.49-.612-.49a1.176,1.176,0,0,0-1.1.734l-.612-.612A3.244,3.244,0,0,1,60,14.207a1.819,1.819,0,0,1,1.1-.245,1.708,1.708,0,0,1,1.1.367,1.511,1.511,0,0,1,.49.979,1.4,1.4,0,0,1-1.1,1.346l-.367.245c-.367.245-.612.367-.734.734h2.2v.857l-3.3-.122Zm-2.08,15.3L68.93,27.056V8.7H45.557V26.934L57.3,33.665Zm52.989,43.321H4.316L.4,85.552l3.916,8.566H110.293l3.794-8.566Z" transform="translate(-0.4 -8.7)" fill="#ff492c"/>
  <path id="Path_71128" data-name="Path 71128" d="M28.135,65.325a.209.209,0,0,1-.208-.208V53.541a.209.209,0,0,1,.208-.208h2.007a.209.209,0,0,1,.208.208v9.631a.076.076,0,0,0,.086.086h5.6a.182.182,0,0,1,.135.049.2.2,0,0,1,.061.147v1.664a.2.2,0,0,1-.061.147.163.163,0,0,1-.135.061Zm17.243-5.311a7.521,7.521,0,0,1,.061,1.456.2.2,0,0,1-.22.208h-5.3q-.1,0-.061.086a3.051,3.051,0,0,0,.184.685,1.814,1.814,0,0,0,1.823.955,2.049,2.049,0,0,0,1.725-.893.2.2,0,0,1,.159-.1q.049,0,.11.073L45.1,63.7a.239.239,0,0,1,.086.159.477.477,0,0,1-.061.135,3.914,3.914,0,0,1-1.456,1.089,4.958,4.958,0,0,1-1.958.379,4.52,4.52,0,0,1-2.5-.661,3.717,3.717,0,0,1-1.456-1.872,5.753,5.753,0,0,1-.367-2.239,4.953,4.953,0,0,1,.257-1.664,3.689,3.689,0,0,1,1.383-1.934,4.239,4.239,0,0,1,5.091.269,4.407,4.407,0,0,1,1.26,2.656Zm-4-1.554a1.371,1.371,0,0,0-1.42,1q-.061.22-.122.551a.076.076,0,0,0,.086.086h2.974q.1,0,.061-.086-.086-.5-.086-.477a1.426,1.426,0,0,0-.538-.8,1.558,1.558,0,0,0-.955-.281Zm8.982-2.08a4.777,4.777,0,0,1,1.982.392,3.222,3.222,0,0,1,1.371,1.052,2.445,2.445,0,0,1,.49,1.493v5.8a.209.209,0,0,1-.208.208H51.986a.209.209,0,0,1-.208-.208v-.563a.082.082,0,0,0-.037-.073q-.024-.012-.061.037a2.729,2.729,0,0,1-2.313.942,3.423,3.423,0,0,1-2.166-.649,2.3,2.3,0,0,1-.82-1.921,2.437,2.437,0,0,1,.93-2.044,4.124,4.124,0,0,1,2.631-.734h1.75a.076.076,0,0,0,.086-.086v-.367a1.159,1.159,0,0,0-.343-.893,1.5,1.5,0,0,0-1.028-.306,1.9,1.9,0,0,0-.881.184.844.844,0,0,0-.453.526q-.049.2-.22.171l-2.08-.269q-.2-.037-.184-.159a2.336,2.336,0,0,1,.575-1.3A3.23,3.23,0,0,1,48.5,56.71a5,5,0,0,1,1.86-.33Zm-.343,7.281a2,2,0,0,0,1.248-.392,1.22,1.22,0,0,0,.514-1.016v-.612a.076.076,0,0,0-.086-.086H50.456a2.1,2.1,0,0,0-1.2.294.932.932,0,0,0-.441.82.9.9,0,0,0,.33.734A1.345,1.345,0,0,0,50.016,63.661ZM61.36,53.541a.209.209,0,0,1,.208-.208h1.995a.209.209,0,0,1,.208.208V65.117a.209.209,0,0,1-.208.208H61.568a.209.209,0,0,1-.208-.208v-.563a.057.057,0,0,0-.037-.061.07.07,0,0,0-.073.024,2.328,2.328,0,0,1-1.97.942,3.266,3.266,0,0,1-2.056-.661,3.705,3.705,0,0,1-1.248-1.836,6.669,6.669,0,0,1-.294-2.08A6.387,6.387,0,0,1,56,58.766a3.638,3.638,0,0,1,1.236-1.738,3.353,3.353,0,0,1,2.1-.649,2.308,2.308,0,0,1,1.909.857q.037.049.073.037t.037-.073Zm-.367,9.117a4.584,4.584,0,0,0-.024-3.537,1.276,1.276,0,0,0-1.15-.661,1.356,1.356,0,0,0-1.224.661,3.369,3.369,0,0,0-.428,1.823,3.6,3.6,0,0,0,.367,1.713,1.375,1.375,0,0,0,1.26.734,1.328,1.328,0,0,0,1.2-.734Zm12.4-2.643a7.521,7.521,0,0,1,.061,1.456.2.2,0,0,1-.22.208h-5.3q-.1,0-.061.086a3.052,3.052,0,0,0,.184.685,1.814,1.814,0,0,0,1.823.955,2.049,2.049,0,0,0,1.725-.893.2.2,0,0,1,.159-.1q.049,0,.11.073L73.108,63.7a.239.239,0,0,1,.086.159.477.477,0,0,1-.061.135,3.914,3.914,0,0,1-1.456,1.089,4.958,4.958,0,0,1-1.958.379,4.52,4.52,0,0,1-2.5-.661,3.717,3.717,0,0,1-1.456-1.872,5.753,5.753,0,0,1-.367-2.239,4.953,4.953,0,0,1,.257-1.664,3.689,3.689,0,0,1,1.383-1.934,4.239,4.239,0,0,1,5.091.269,4.407,4.407,0,0,1,1.26,2.656Zm-4-1.554a1.371,1.371,0,0,0-1.42,1q-.061.22-.122.551a.076.076,0,0,0,.086.086h2.974q.1,0,.061-.086-.086-.5-.086-.477a1.426,1.426,0,0,0-.538-.8,1.558,1.558,0,0,0-.955-.281ZM79.325,56.4a1.773,1.773,0,0,1,.979.233.229.229,0,0,1,.11.257l-.367,1.958q-.012.208-.233.122a1.9,1.9,0,0,0-.6-.086,3.775,3.775,0,0,0-.379.024,1.77,1.77,0,0,0-1.052.453,1.41,1.41,0,0,0-.428,1.077v4.675a.228.228,0,0,1-.049.147.2.2,0,0,1-.147.061H75.152a.209.209,0,0,1-.208-.208V56.722a.209.209,0,0,1,.208-.208h2.007a.2.2,0,0,1,.147.061.228.228,0,0,1,.049.147v.649q0,.061.037.073t.049-.012A2.188,2.188,0,0,1,79.325,56.4ZM20.34,36.335a.274.274,0,0,1,.245-.135h2.007a.209.209,0,0,1,.208.208V47.985a.209.209,0,0,1-.208.208H20.584a.209.209,0,0,1-.208-.208V40.434q0-.073-.037-.073t-.061.049l-1.823,2.851a.264.264,0,0,1-.233.135H17.207a.264.264,0,0,1-.233-.135L15.151,40.41q-.037-.049-.061-.037t-.037.073v7.538a.209.209,0,0,1-.208.208H12.838a.209.209,0,0,1-.208-.208V36.408a.209.209,0,0,1,.208-.208h2.007a.274.274,0,0,1,.245.135l2.57,3.989q.049.11.1,0l2.582-3.989Zm8.285,11.993a4.093,4.093,0,0,1-2.472-.746,3.8,3.8,0,0,1-1.407-2.056,6.3,6.3,0,0,1-.233-1.75,6.592,6.592,0,0,1,.233-1.823,3.681,3.681,0,0,1,1.42-1.982,4.191,4.191,0,0,1,2.472-.722,4.011,4.011,0,0,1,2.4.71,3.815,3.815,0,0,1,1.407,1.982,5.965,5.965,0,0,1,.269,1.8,6.127,6.127,0,0,1-.233,1.725,3.834,3.834,0,0,1-1.4,2.1A4.027,4.027,0,0,1,28.624,48.327Zm0-2.068a1.4,1.4,0,0,0,.955-.343,1.913,1.913,0,0,0,.563-.942,5.045,5.045,0,0,0,.135-1.2,4.787,4.787,0,0,0-.135-1.224,1.91,1.91,0,0,0-.575-.906,1.515,1.515,0,0,0-.967-.318,1.483,1.483,0,0,0-.967.318,1.876,1.876,0,0,0-.551.906,3.882,3.882,0,0,0-.147,1.224,4.576,4.576,0,0,0,.122,1.2,1.872,1.872,0,0,0,.575.942,1.48,1.48,0,0,0,.991.343Zm15.419-7.012a2.692,2.692,0,0,1,2.08.808,3.178,3.178,0,0,1,.759,2.264v5.666a.209.209,0,0,1-.208.208H44.668a.2.2,0,0,1-.147-.061.228.228,0,0,1-.049-.147v-5.14a1.622,1.622,0,0,0-.367-1.114,1.207,1.207,0,0,0-.955-.4,1.283,1.283,0,0,0-.979.4,1.571,1.571,0,0,0-.379,1.1v5.152a.209.209,0,0,1-.208.208H39.6a.209.209,0,0,1-.208-.208v-5.14a1.571,1.571,0,0,0-.379-1.1,1.227,1.227,0,0,0-.967-.416,1.351,1.351,0,0,0-.918.318,1.41,1.41,0,0,0-.441.906v5.433a.209.209,0,0,1-.208.208H34.474a.163.163,0,0,1-.135-.061.2.2,0,0,1-.061-.147V39.59a.2.2,0,0,1,.061-.147.163.163,0,0,1,.135-.061h2.007a.209.209,0,0,1,.208.208v.673a.057.057,0,0,0,.037.061q.037.024.061-.024a2.446,2.446,0,0,1,2.178-1.052,3,3,0,0,1,1.505.367,2.386,2.386,0,0,1,.979,1.028q.049.1.122,0a2.485,2.485,0,0,1,1.016-1.052,3.069,3.069,0,0,1,1.456-.343Zm12.274,3.635a6.874,6.874,0,0,1,.073,1.456.2.2,0,0,1-.22.208h-5.3q-.1,0-.061.086a3.051,3.051,0,0,0,.184.685,1.788,1.788,0,0,0,1.811.955,2.06,2.06,0,0,0,1.738-.893.174.174,0,0,1,.147-.1.167.167,0,0,1,.122.073l1.236,1.212a.239.239,0,0,1,.086.159.44.44,0,0,1-.073.135A3.787,3.787,0,0,1,54.6,47.948a4.87,4.87,0,0,1-1.946.379,4.482,4.482,0,0,1-2.5-.661,3.783,3.783,0,0,1-1.469-1.872,5.931,5.931,0,0,1-.355-2.239A4.953,4.953,0,0,1,48.6,41.89a3.689,3.689,0,0,1,1.383-1.934,3.829,3.829,0,0,1,2.337-.722,3.782,3.782,0,0,1,2.741.991,4.318,4.318,0,0,1,1.26,2.656Zm-3.989-1.554a1.371,1.371,0,0,0-1.42,1,3.308,3.308,0,0,0-.122.551.076.076,0,0,0,.086.086h2.961q.11,0,.073-.086-.086-.5-.086-.477a1.512,1.512,0,0,0-.538-.8,1.592,1.592,0,0,0-.955-.281Zm10.145-2.08a3,3,0,0,1,2.215.844,3.076,3.076,0,0,1,.832,2.276v5.617a.209.209,0,0,1-.208.208H63.318a.209.209,0,0,1-.208-.208V42.869a1.586,1.586,0,0,0-.392-1.114,1.419,1.419,0,0,0-2.031,0,1.586,1.586,0,0,0-.392,1.114v5.115a.209.209,0,0,1-.208.208H58.093a.209.209,0,0,1-.208-.208V39.59a.209.209,0,0,1,.208-.208h1.995a.209.209,0,0,1,.208.208v.6a.082.082,0,0,0,.037.073.034.034,0,0,0,.049-.024A2.409,2.409,0,0,1,62.474,39.247Zm9.839,1.872a.209.209,0,0,1-.208.208H70.452a.076.076,0,0,0-.086.086v3.622a1.273,1.273,0,0,0,.233.844.937.937,0,0,0,.746.269h.563a.209.209,0,0,1,.208.208v1.628a.2.2,0,0,1-.208.22q-.71.037-1.028.037a3.861,3.861,0,0,1-2.117-.465A2.012,2.012,0,0,1,68.042,46V41.413a.076.076,0,0,0-.086-.086h-.979a.209.209,0,0,1-.208-.208V39.59a.209.209,0,0,1,.208-.208h.979a.076.076,0,0,0,.086-.086V37.265a.209.209,0,0,1,.208-.208h1.921a.163.163,0,0,1,.135.061.2.2,0,0,1,.061.147V39.3a.076.076,0,0,0,.086.086H72.1a.209.209,0,0,1,.208.208v1.53Zm6.6-1.53a.228.228,0,0,1,.049-.147.2.2,0,0,1,.147-.061h2.007a.209.209,0,0,1,.208.208v8.395a.209.209,0,0,1-.208.208H79.1a.2.2,0,0,1-.147-.061.228.228,0,0,1-.049-.147V47.41q0-.061-.037-.061t-.073.037a2.456,2.456,0,0,1-2.117.93,2.972,2.972,0,0,1-2.142-.8,2.856,2.856,0,0,1-.844-2.2V39.59a.209.209,0,0,1,.208-.208h1.982a.209.209,0,0,1,.208.208v5.128a1.651,1.651,0,0,0,.367,1.114,1.267,1.267,0,0,0,1.016.428,1.359,1.359,0,0,0,.967-.355,1.53,1.53,0,0,0,.465-.918v-5.4Zm13.963-.343a2.692,2.692,0,0,1,2.08.808,3.178,3.178,0,0,1,.759,2.264v5.666a.209.209,0,0,1-.208.208H93.5a.2.2,0,0,1-.147-.061.228.228,0,0,1-.049-.147v-5.14a1.622,1.622,0,0,0-.367-1.114,1.207,1.207,0,0,0-.955-.4,1.283,1.283,0,0,0-.979.4,1.571,1.571,0,0,0-.379,1.1v5.152a.209.209,0,0,1-.208.208H88.429a.209.209,0,0,1-.208-.208v-5.14a1.571,1.571,0,0,0-.379-1.1,1.227,1.227,0,0,0-.967-.416,1.351,1.351,0,0,0-.918.318,1.41,1.41,0,0,0-.441.906v5.433a.209.209,0,0,1-.208.208H83.3a.2.2,0,0,1-.147-.061.228.228,0,0,1-.049-.147V39.59a.228.228,0,0,1,.049-.147.2.2,0,0,1,.147-.061h2.007a.209.209,0,0,1,.208.208v.673a.057.057,0,0,0,.037.061q.037.024.061-.024a2.446,2.446,0,0,1,2.178-1.052,3,3,0,0,1,1.505.367,2.386,2.386,0,0,1,.979,1.028q.049.1.122,0a2.485,2.485,0,0,1,1.016-1.052,3.069,3.069,0,0,1,1.456-.343Z" transform="translate(2.337 -2.547)" fill="#252530"/>
  <path id="Path_71129" data-name="Path 71129" d="M33.715,77.082a4.179,4.179,0,0,1-1.664-.306,2.551,2.551,0,0,1-1.1-.857,2.23,2.23,0,0,1-.379-1.3v-.306a.152.152,0,0,1,.049-.11.132.132,0,0,1,.1-.037h1.089a.13.13,0,0,1,.147.147v.233a1.111,1.111,0,0,0,.5.93,2.223,2.223,0,0,0,1.371.379,1.716,1.716,0,0,0,1.126-.318,1.021,1.021,0,0,0,.379-.82.877.877,0,0,0-.208-.587,2.026,2.026,0,0,0-.587-.428q-.392-.2-1.163-.49a12.1,12.1,0,0,1-1.407-.6,2.544,2.544,0,0,1-.893-.771,1.909,1.909,0,0,1-.367-1.2,2.058,2.058,0,0,1,.783-1.7,3.262,3.262,0,0,1,2.093-.624,3.942,3.942,0,0,1,1.628.318,2.574,2.574,0,0,1,1.089.893,2.236,2.236,0,0,1,.392,1.309v.208a.152.152,0,0,1-.049.11.132.132,0,0,1-.1.037h-1.1a.132.132,0,0,1-.1-.037.152.152,0,0,1-.049-.11v-.135a1.216,1.216,0,0,0-.465-.967,1.964,1.964,0,0,0-1.309-.4,1.679,1.679,0,0,0-1.04.281.932.932,0,0,0-.379.8.9.9,0,0,0,.2.6,1.7,1.7,0,0,0,.587.416,11.923,11.923,0,0,0,1.212.49,14.4,14.4,0,0,1,1.4.6,2.785,2.785,0,0,1,.893.746,1.962,1.962,0,0,1,.367,1.212,2.114,2.114,0,0,1-.82,1.75A3.443,3.443,0,0,1,33.715,77.082Zm7.905-8.676a2.808,2.808,0,0,1,1.358.318,2.221,2.221,0,0,1,.906.893,2.7,2.7,0,0,1,.33,1.346,2.606,2.606,0,0,1-.33,1.322,2.2,2.2,0,0,1-.93.881,3.007,3.007,0,0,1-1.407.318H39.589a.054.054,0,0,0-.061.061v3.292a.132.132,0,0,1-.037.1.152.152,0,0,1-.11.049H38.255a.173.173,0,0,1-.147-.147V68.553a.152.152,0,0,1,.049-.11.132.132,0,0,1,.1-.037h3.365Zm-.208,3.928a1.382,1.382,0,0,0,1-.367A1.284,1.284,0,0,0,42.8,71a1.341,1.341,0,0,0-.379-.991,1.357,1.357,0,0,0-1-.379H39.589a.054.054,0,0,0-.061.061v2.582a.054.054,0,0,0,.061.061h1.823Zm8.86,4.65a.173.173,0,0,1-.171-.11L48.486,73.35a.078.078,0,0,0-.073-.049H46.944a.054.054,0,0,0-.061.061v3.475a.173.173,0,0,1-.147.147H45.61a.173.173,0,0,1-.147-.147V68.565a.173.173,0,0,1,.147-.147h3.365a2.772,2.772,0,0,1,1.322.306,2.263,2.263,0,0,1,.893.881,2.66,2.66,0,0,1,.318,1.309,2.364,2.364,0,0,1-.428,1.432,2.266,2.266,0,0,1-1.212.832.039.039,0,0,0-.037.024.052.052,0,0,0,0,.049l1.725,3.561a.188.188,0,0,1,.024.073q0,.1-.135.1Zm-3.329-7.343a.054.054,0,0,0-.061.061v2.435a.054.054,0,0,0,.061.061h1.836a1.274,1.274,0,0,0,.942-.355,1.2,1.2,0,0,0,.367-.918,1.235,1.235,0,0,0-.367-.93,1.274,1.274,0,0,0-.942-.355Zm6.168,7.343a.152.152,0,0,1-.11-.049.132.132,0,0,1-.037-.1V68.565a.132.132,0,0,1,.037-.1.152.152,0,0,1,.11-.049h1.126a.173.173,0,0,1,.147.147v8.273a.173.173,0,0,1-.147.147Zm8.04-8.419a.173.173,0,0,1,.147-.147h1.126a.152.152,0,0,1,.11.049.132.132,0,0,1,.037.1v8.273a.132.132,0,0,1-.037.1.152.152,0,0,1-.11.049H61.335a.175.175,0,0,1-.171-.1L57.639,71.11q-.024-.037-.049-.037t-.024.061l.024,5.7a.173.173,0,0,1-.147.147H56.318a.173.173,0,0,1-.147-.147V68.565a.173.173,0,0,1,.147-.147h1.089a.175.175,0,0,1,.171.1l3.512,5.776q.024.037.049.024t.024-.049Zm6.07,8.517a3.515,3.515,0,0,1-1.615-.355A2.618,2.618,0,0,1,64.529,75.7a2.993,2.993,0,0,1-.379-1.517V71.22a3.018,3.018,0,0,1,.379-1.53,2.642,2.642,0,0,1,1.077-1.016,3.826,3.826,0,0,1,3.218,0,2.66,2.66,0,0,1,1.065.967,2.57,2.57,0,0,1,.379,1.383v.1a.132.132,0,0,1-.037.1.152.152,0,0,1-.11.049H69.008a.173.173,0,0,1-.147-.147v-.061a1.434,1.434,0,0,0-.453-1.089A1.836,1.836,0,0,0,66.022,70a1.564,1.564,0,0,0-.453,1.175v3.059a1.561,1.561,0,0,0,.477,1.187,1.75,1.75,0,0,0,1.236.441,1.657,1.657,0,0,0,1.163-.392,1.352,1.352,0,0,0,.416-1.052v-.759a.054.054,0,0,0-.061-.061H67.295a.152.152,0,0,1-.11-.049.132.132,0,0,1-.037-.1v-.906a.132.132,0,0,1,.037-.1.152.152,0,0,1,.11-.049h2.827a.152.152,0,0,1,.11.049.132.132,0,0,1,.037.1v1.566a2.885,2.885,0,0,1-.82,2.191,3.118,3.118,0,0,1-2.227.783Z" transform="translate(6.351 4.64)" fill="#fff"/>
  <path id="Path_71130" data-name="Path 71130" d="M34.114,95.346a.07.07,0,0,0-.024.073.082.082,0,0,0,.073.037h4.809a.2.2,0,0,1,.147.061.185.185,0,0,1,.073.147V97.39a.185.185,0,0,1-.073.147.2.2,0,0,1-.147.061H30.994a.215.215,0,0,1-.159-.061.2.2,0,0,1-.061-.147V95.75a.366.366,0,0,1,.11-.269q.869-.844,1.774-1.848T33.8,92.385q.49-.587,1-1.126,1.615-1.787,1.615-2.656a1.333,1.333,0,0,0-.441-1.028,1.885,1.885,0,0,0-2.3,0,1.358,1.358,0,0,0-.453,1.065v.441a.209.209,0,0,1-.208.208H30.92a.2.2,0,0,1-.147-.061.185.185,0,0,1-.073-.147v-.832a3.143,3.143,0,0,1,.612-1.7,3.53,3.53,0,0,1,1.456-1.126,5.189,5.189,0,0,1,2.056-.392,4.739,4.739,0,0,1,2.191.477,3.49,3.49,0,0,1,1.432,1.26,3.239,3.239,0,0,1,.514,1.774,3.5,3.5,0,0,1-.379,1.53,8.189,8.189,0,0,1-1.114,1.689q-.551.685-1.187,1.371t-1.9,1.946l-.269.269Zm10.842,2.448A4.248,4.248,0,0,1,41.873,96.7a3.921,3.921,0,0,1-1.138-2.974V89.044a3.834,3.834,0,0,1,1.138-2.925,4.248,4.248,0,0,1,3.084-1.089,4.319,4.319,0,0,1,3.1,1.089,3.834,3.834,0,0,1,1.138,2.925v4.687A3.921,3.921,0,0,1,48.053,96.7,4.319,4.319,0,0,1,44.957,97.794Zm0-2.142a1.656,1.656,0,0,0,1.26-.49,1.8,1.8,0,0,0,.477-1.309V88.97a1.779,1.779,0,0,0-.477-1.3,1.852,1.852,0,0,0-2.509,0,1.779,1.779,0,0,0-.477,1.3v4.883a1.8,1.8,0,0,0,.477,1.309A1.64,1.64,0,0,0,44.957,95.652Zm9.2-.306a.053.053,0,0,0-.012.073q.012.037.073.037H59.03a.209.209,0,0,1,.208.208V97.39a.209.209,0,0,1-.208.208H51.039a.209.209,0,0,1-.208-.208V95.75a.391.391,0,0,1,.1-.269q.881-.844,1.774-1.848t1.138-1.248q.5-.587,1.016-1.126,1.615-1.787,1.615-2.656a1.333,1.333,0,0,0-.441-1.028,1.714,1.714,0,0,0-1.163-.392,1.667,1.667,0,0,0-1.15.392,1.376,1.376,0,0,0-.441,1.065v.441a.2.2,0,0,1-.061.147.215.215,0,0,1-.159.061H50.965a.209.209,0,0,1-.208-.208v-.832a3.067,3.067,0,0,1,.6-1.7,3.517,3.517,0,0,1,1.469-1.126,5.157,5.157,0,0,1,2.044-.392,4.739,4.739,0,0,1,2.191.477,3.475,3.475,0,0,1,1.444,1.26,3.3,3.3,0,0,1,.5,1.774,3.59,3.59,0,0,1-.367,1.53,8.651,8.651,0,0,1-1.126,1.689q-.551.685-1.187,1.371t-1.9,1.946l-.269.269Zm15.493-3.157a.244.244,0,0,1,.159.061.2.2,0,0,1,.061.147v1.8a.2.2,0,0,1-.061.147.244.244,0,0,1-.159.061h-.759a.076.076,0,0,0-.086.086v2.9a.2.2,0,0,1-.061.147.244.244,0,0,1-.159.061H66.519a.215.215,0,0,1-.159-.061.2.2,0,0,1-.061-.147v-2.9a.076.076,0,0,0-.086-.086H60.768a.244.244,0,0,1-.159-.061.2.2,0,0,1-.061-.147v-1.42a.777.777,0,0,1,.061-.269L63.8,85.336a.251.251,0,0,1,.245-.159h2.215a.208.208,0,0,1,.171.061q.049.061-.012.184L63.46,92.079a.113.113,0,0,0,0,.073.072.072,0,0,0,.061.037h2.692q.086,0,.086-.1V89.9a.21.21,0,0,1,.22-.22h2.068a.244.244,0,0,1,.159.061.215.215,0,0,1,.061.159v2.191q0,.1.086.1h.759Z" transform="translate(6.38 8.379)" fill="#252530"/>
</svg>
